<?xml version="1.0" encoding="UTF-8" standalone="no"?>
<svg
   xmlns:dc="http://purl.org/dc/elements/1.1/"
   xmlns:cc="http://creativecommons.org/ns#"
   xmlns:rdf="http://www.w3.org/1999/02/22-rdf-syntax-ns#"
   xmlns:svg="http://www.w3.org/2000/svg"
   xmlns="http://www.w3.org/2000/svg"
   xmlns:sodipodi="http://sodipodi.sourceforge.net/DTD/sodipodi-0.dtd"
   xmlns:inkscape="http://www.inkscape.org/namespaces/inkscape"
   version="1.1"
   id="CMYK"
   x="0px"
   y="0px"
   width="275"
   height="64"
   viewBox="0 0 154.92199 40.541627"
   enable-background="new 0 0 154.642 37.8"
   xml:space="preserve"
   inkscape:version="0.91 r13725"
   sodipodi:docname="cw--logo.svg"><metadata
     id="metadata67"><rdf:RDF><cc:Work
         rdf:about=""><dc:format>image/svg+xml</dc:format><dc:type
           rdf:resource="http://purl.org/dc/dcmitype/StillImage" /><dc:title></dc:title></cc:Work></rdf:RDF></metadata><defs
     id="defs65" /><sodipodi:namedview
     pagecolor="#ffffff"
     bordercolor="#666666"
     borderopacity="1"
     objecttolerance="10"
     gridtolerance="10"
     guidetolerance="10"
     inkscape:pageopacity="0"
     inkscape:pageshadow="2"
     inkscape:window-width="1920"
     inkscape:window-height="1016"
     id="namedview63"
     showgrid="false"
     inkscape:zoom="3.7042203"
     inkscape:cx="117.2768"
     inkscape:cy="18.222989"
     inkscape:window-x="0"
     inkscape:window-y="27"
     inkscape:window-maximized="1"
     inkscape:current-layer="CMYK" /><g
     id="g3"
     transform="translate(-3.370114e-8,1.4746985)"><polygon
       points="0,9.445 0,9.445 16.371,18.902 32.739,9.445 16.371,0 "
       id="polygon5"
       style="fill:#febf3e" /><polygon
       points="16.371,37.8 32.739,28.353 32.739,28.353 32.739,9.445 32.739,9.445 16.371,18.902 "
       id="polygon7"
       style="fill:#ea8c2a" /><polygon
       points="16.371,37.8 16.371,18.902 0,9.445 0,28.353 "
       id="polygon9"
       style="fill:#b7622b" /><g
       id="g11"><path
         d="m 16.371,25.763 -5.943,-3.432 0,-6.861 5.943,-3.432 5.94,3.432 5.092,-2.939 c 0,0 0,0 0,-0.004 C 25.198,8.72 21.085,6.158 16.371,6.158 c -4.717,0 -8.83,2.562 -11.034,6.373 l -0.003,0 0,0 c -1.084,1.877 -1.705,4.049 -1.705,6.371 0,2.318 0.621,4.494 1.705,6.367 l 0,0.002 0.003,0 c 2.204,3.811 6.317,6.371 11.034,6.371 4.713,0 8.827,-2.561 11.032,-6.371 l 0,0 -5.092,-2.938 -5.94,3.43 z"
         id="path13"
         inkscape:connector-curvature="0"
         style="fill:#ffffff" /></g></g><g
     id="g15"
     style="fill:#1d3545;fill-opacity:1"
     transform="translate(-3.370114e-8,1.4746985)"><path
       d="M 50.474,8.888 C 49.655,7.777 48.348,7.211 47.022,7.211 c -3.081,0 -5.265,2.711 -5.265,5.733 0,3.198 2.164,5.733 5.265,5.733 1.678,0 3.022,-0.683 3.998,-1.931 l 1.229,1.033 c -1.229,1.658 -3.022,2.418 -5.227,2.418 -3.958,0 -7.02,-3.062 -7.02,-7.254 0,-4.056 2.925,-7.254 7.02,-7.254 1.872,0 3.705,0.644 4.875,2.165 l -1.423,1.034 z"
       id="path17"
       style="fill:#1d3545;fill-opacity:1"
       inkscape:connector-curvature="0" /><path
       d="m 54.002,5.104 1.521,0 0,14.743 -1.521,0 0,-14.743 z"
       id="path19"
       style="fill:#1d3545;fill-opacity:1"
       inkscape:connector-curvature="0" /><path
       d="m 59.052,6.041 c 0.624,0 1.111,0.507 1.111,1.112 0,0.644 -0.468,1.111 -1.111,1.111 -0.643,0 -1.112,-0.468 -1.112,-1.112 0,-0.604 0.488,-1.111 1.112,-1.111 z m -0.761,4.68 1.521,0 0,9.126 -1.521,0 0,-9.126 z"
       id="path21"
       style="fill:#1d3545;fill-opacity:1"
       inkscape:connector-curvature="0" /><path
       d="m 62.445,12.885 c 0,-0.838 -0.078,-1.56 -0.078,-2.165 l 1.442,0 c 0,0.488 0.039,0.995 0.039,1.501 l 0.039,0 c 0.41,-0.897 1.541,-1.735 3.043,-1.735 1.969,0 2.593,1.111 2.886,1.735 0.663,-1.072 1.501,-1.735 2.886,-1.735 2.613,0 3.472,1.462 3.472,3.822 l 0,5.538 -1.521,0 0,-5.46 c 0,-1.268 -0.448,-2.496 -2.223,-2.496 -1.287,0 -2.36,1.053 -2.36,2.691 l 0,5.265 -1.521,0 0,-5.168 c 0,-2.008 -0.507,-2.788 -1.755,-2.788 -1.97,0 -2.828,1.423 -2.828,3.51 l 0,4.446 -1.521,0 0,-6.961 z"
       id="path23"
       style="fill:#1d3545;fill-opacity:1"
       inkscape:connector-curvature="0" /><path
       d="m 77.772,11.891 c 0.936,-0.956 2.301,-1.404 3.627,-1.404 2.691,0 3.822,1.287 3.822,3.861 l 0,3.92 c 0,0.526 0.059,1.111 0.137,1.579 l -1.463,0 c -0.098,-0.409 -0.098,-0.975 -0.098,-1.365 l -0.039,0 c -0.604,0.937 -1.618,1.6 -3.003,1.6 -1.853,0 -3.393,-0.937 -3.393,-2.711 0,-3.022 3.51,-3.198 5.752,-3.198 l 0.586,0 0,-0.273 c 0,-1.326 -0.838,-2.008 -2.262,-2.008 -0.975,0 -1.989,0.331 -2.711,0.994 l -0.955,-0.995 z m 4.408,3.568 c -1.931,0 -3.179,0.526 -3.179,1.755 0,1.15 0.858,1.58 2.009,1.58 1.755,0 2.651,-1.268 2.69,-2.75 l 0,-0.585 -1.52,0 z"
       id="path25"
       style="fill:#1d3545;fill-opacity:1"
       inkscape:connector-curvature="0" /><path
       d="m 92.222,12.008 -2.692,0 0,4.563 c 0,1.17 0.02,2.106 1.365,2.106 0.448,0 0.936,-0.098 1.346,-0.312 L 92.3,19.75 c -0.527,0.234 -1.209,0.332 -1.775,0.332 -2.164,0 -2.516,-1.17 -2.516,-3.062 l 0,-5.012 -1.988,0 0,-1.287 1.988,0 0,-2.594 1.521,0 0,2.593 2.691,0 0,1.288 z"
       id="path27"
       style="fill:#1d3545;fill-opacity:1"
       inkscape:connector-curvature="0" /><path
       d="m 101.855,18.19 c -1.073,1.384 -2.36,1.892 -4.057,1.892 -2.866,0 -4.621,-2.146 -4.621,-4.798 0,-2.827 1.988,-4.797 4.68,-4.797 2.574,0 4.329,1.755 4.329,4.777 l 0,0.488 -7.371,0 c 0.117,1.579 1.326,2.925 2.983,2.925 1.307,0 2.185,-0.468 2.905,-1.385 l 1.152,0.898 z m -1.306,-3.725 c -0.059,-1.541 -1.073,-2.574 -2.75,-2.574 -1.677,0 -2.788,1.033 -2.983,2.574 l 5.733,0 z"
       id="path29"
       style="fill:#1d3545;fill-opacity:1"
       inkscape:connector-curvature="0" /><path
       d="m 102.439,6.041 1.813,0 3.14,11.467 0.039,0 3.393,-11.467 1.833,0 3.374,11.467 0.039,0 3.198,-11.467 1.716,0 -4.056,13.807 -1.775,0 -3.412,-11.7 -0.039,0 -3.433,11.7 -1.794,0 -4.036,-13.807 z"
       id="path31"
       style="fill:#1d3545;fill-opacity:1"
       inkscape:connector-curvature="0" /><path
       d="m 125.392,10.487 c 2.808,0 4.875,1.95 4.875,4.797 0,2.848 -2.067,4.798 -4.875,4.798 -2.809,0 -4.875,-1.95 -4.875,-4.798 0,-2.847 2.066,-4.797 4.875,-4.797 z m 0,8.19 c 1.97,0 3.237,-1.482 3.237,-3.394 0,-1.911 -1.268,-3.393 -3.237,-3.393 -1.969,0 -3.237,1.482 -3.237,3.393 -0.001,1.912 1.267,3.394 3.237,3.394 z"
       id="path33"
       style="fill:#1d3545;fill-opacity:1"
       inkscape:connector-curvature="0" /><path
       d="m 131.846,12.885 c 0,-0.838 -0.078,-1.56 -0.078,-2.165 l 1.442,0 c 0,0.488 0.039,0.995 0.039,1.501 l 0.039,0 c 0.41,-0.897 1.541,-1.735 3.043,-1.735 0.194,0 0.409,0.02 0.623,0.098 l -0.097,1.541 c -0.254,-0.078 -0.546,-0.117 -0.819,-0.117 -1.853,0 -2.672,1.307 -2.672,3.393 l 0,4.446 -1.521,0 0,-6.962 z"
       id="path35"
       style="fill:#1d3545;fill-opacity:1"
       inkscape:connector-curvature="0" /><path
       d="m 138.71,5.104 1.521,0 0,9.633 4.154,-4.017 2.164,0 -4.407,4.154 4.855,4.973 -2.242,0 -4.524,-4.797 0,4.797 -1.521,0 0,-14.743 z"
       id="path37"
       style="fill:#1d3545;fill-opacity:1"
       inkscape:connector-curvature="0" /><path
       d="m 148.654,17.449 c 0.604,0.741 1.268,1.229 2.341,1.229 0.955,0 2.008,-0.409 2.008,-1.404 0,-0.975 -0.975,-1.229 -1.949,-1.443 -1.736,-0.39 -3.218,-0.76 -3.218,-2.652 0,-1.774 1.716,-2.691 3.412,-2.691 1.287,0 2.477,0.487 3.101,1.658 l -1.268,0.838 c -0.39,-0.644 -1.033,-1.092 -1.931,-1.092 -0.838,0 -1.794,0.409 -1.794,1.267 0,0.761 1.092,1.092 2.302,1.326 1.618,0.312 2.983,0.897 2.983,2.73 0,2.067 -1.833,2.867 -3.646,2.867 -1.541,0 -2.652,-0.41 -3.55,-1.697 l 1.209,-0.936 z"
       id="path39"
       style="fill:#1d3545;fill-opacity:1"
       inkscape:connector-curvature="0" /></g><g
     id="g41"
     style="fill:#1d3545;fill-opacity:1"
     transform="translate(-3.370114e-8,1.4746985)"><path
       d="m 42.183,24.437 5.265,0 0,0.936 -4.258,0 0,2.807 3.958,0 0,0.936 -3.958,0 0,3.813 -1.007,0 0,-8.492 z"
       id="path43"
       style="fill:#1d3545;fill-opacity:1"
       inkscape:connector-curvature="0" /><path
       d="m 51.482,28.682 c 0,-2.566 1.859,-4.461 4.438,-4.461 2.579,0 4.438,1.895 4.438,4.461 0,2.567 -1.858,4.462 -4.438,4.462 -2.578,0 -4.438,-1.894 -4.438,-4.462 z m 7.796,0 c 0,-1.954 -1.367,-3.525 -3.358,-3.525 -1.99,0 -3.357,1.571 -3.357,3.525 0,1.955 1.367,3.526 3.357,3.526 1.991,0 3.358,-1.571 3.358,-3.526 z"
       id="path45"
       style="fill:#1d3545;fill-opacity:1"
       inkscape:connector-curvature="0" /><path
       d="m 71.711,29.69 c 0,1.847 -0.863,3.454 -3.202,3.454 -2.339,0 -3.202,-1.607 -3.202,-3.454 l 0,-5.253 1.008,0 0,5.109 c 0,1.367 0.503,2.662 2.194,2.662 1.691,0 2.194,-1.295 2.194,-2.662 l 0,-5.109 1.008,0 0,5.253 z"
       id="path47"
       style="fill:#1d3545;fill-opacity:1"
       inkscape:connector-curvature="0" /><path
       d="m 77.631,24.437 1.271,0 4.917,7.052 0.023,0 0,-7.052 1.008,0 0,8.491 -1.271,0 -4.917,-7.052 -0.024,0 0,7.052 -1.007,0 0,-8.491 z"
       id="path49"
       style="fill:#1d3545;fill-opacity:1"
       inkscape:connector-curvature="0" /><path
       d="m 91.13,24.437 3.263,0 c 1.667,0 4.161,1.115 4.161,4.245 0,3.131 -2.494,4.246 -4.161,4.246 l -3.263,0 0,-8.491 z m 1.008,7.556 1.919,0 c 1.942,0 3.418,-0.983 3.418,-3.311 0,-2.326 -1.476,-3.31 -3.418,-3.31 l -1.919,0 0,6.621 z"
       id="path51"
       style="fill:#1d3545;fill-opacity:1"
       inkscape:connector-curvature="0" /><path
       d="m 106.296,24.437 0.948,0 3.609,8.491 -1.175,0 -0.864,-2.087 -4.245,0 -0.876,2.087 -1.139,0 3.742,-8.491 z m 0.456,1.295 -0.023,0 -1.764,4.174 3.467,0 -1.68,-4.174 z"
       id="path53"
       style="fill:#1d3545;fill-opacity:1"
       inkscape:connector-curvature="0" /><path
       d="m 120.658,25.373 -2.806,0 0,7.556 -1.008,0 0,-7.556 -2.807,0 0,-0.936 6.62,0 0,0.936 z"
       id="path55"
       style="fill:#1d3545;fill-opacity:1"
       inkscape:connector-curvature="0" /><path
       d="m 126.65,24.437 1.007,0 0,8.491 -1.007,0 0,-8.491 z"
       id="path57"
       style="fill:#1d3545;fill-opacity:1"
       inkscape:connector-curvature="0" /><path
       d="m 132.638,28.682 c 0,-2.566 1.859,-4.461 4.438,-4.461 2.579,0 4.438,1.895 4.438,4.461 0,2.567 -1.858,4.462 -4.438,4.462 -2.579,0 -4.438,-1.894 -4.438,-4.462 z m 7.796,0 c 0,-1.954 -1.367,-3.525 -3.358,-3.525 -1.99,0 -3.357,1.571 -3.357,3.525 0,1.955 1.367,3.526 3.357,3.526 1.99,0 3.358,-1.571 3.358,-3.526 z"
       id="path59"
       style="fill:#1d3545;fill-opacity:1"
       inkscape:connector-curvature="0" /><path
       d="m 146.018,24.437 1.271,0 4.917,7.052 0.023,0 0,-7.052 1.008,0 0,8.491 -1.271,0 -4.917,-7.052 -0.024,0 0,7.052 -1.007,0 0,-8.491 z"
       id="path61"
       style="fill:#1d3545;fill-opacity:1"
       inkscape:connector-curvature="0" /></g></svg>