<?xml version="1.0" encoding="UTF-8" standalone="no"?>
<svg width="175px" height="156px" viewBox="0 0 175 156" version="1.1" xmlns="http://www.w3.org/2000/svg" xmlns:xlink="http://www.w3.org/1999/xlink" xmlns:sketch="http://www.bohemiancoding.com/sketch/ns">
    <!-- Generator: Sketch 3.3.2 (12043) - http://www.bohemiancoding.com/sketch -->
    <title>icon citizens</title>
    <desc>Created with Sketch.</desc>
    <defs></defs>
    <g id="landings" stroke="none" stroke-width="1" fill="none" fill-rule="evenodd" sketch:type="MSPage">
        <g id="landing-v04g-copy-5" sketch:type="MSArtboardGroup" transform="translate(-230.000000, -2700.000000)">
            <g id="citizens" sketch:type="MSLayerGroup" transform="translate(243.000000, 2722.000000)">
                <path d="M45,64 L51,64 L51,52 L45,52 L45,64 Z" id="Fill-1" fill="#FFFFFF" sketch:type="MSShapeGroup"></path>
                <path d="M45,64 L51,64 L51,52 L45,52 L45,64 Z" id="Stroke-2" stroke="#000000" stroke-width="2" stroke-linejoin="bevel" sketch:type="MSShapeGroup"></path>
                <path d="M23,113 L107,113 L107,85 L23,85 L23,113 Z" id="Fill-3" fill="#FFFFFF" sketch:type="MSShapeGroup"></path>
                <path d="M23,113 L107,113 L107,85 L23,85 L23,113 Z" id="Stroke-4" stroke="#000000" stroke-width="2" sketch:type="MSShapeGroup"></path>
                <path d="M68,113 L128,113 L128,16 L68,16 L68,113 Z" id="Fill-5" fill="#FFFFFF" sketch:type="MSShapeGroup"></path>
                <path d="M68,113 L128,113 L128,16 L68,16 L68,113 Z" id="Stroke-6" stroke="#000000" stroke-width="2" sketch:type="MSShapeGroup"></path>
                <path d="M64,16 L132,16 L132,6 L64,6 L64,16 Z" id="Fill-7" fill="#FFFFFF" sketch:type="MSShapeGroup"></path>
                <path d="M64,16 L132,16 L132,6 L64,6 L64,16 Z" id="Stroke-8" stroke="#000000" stroke-width="2" sketch:type="MSShapeGroup"></path>
                <path d="M78,6 L82,6 L82,0 L78,0 L78,6 Z" id="Fill-9" fill="#FFFFFF" sketch:type="MSShapeGroup"></path>
                <path d="M78,6 L82,6 L82,0 L78,0 L78,6 Z" id="Stroke-10" stroke="#000000" stroke-width="2" sketch:type="MSShapeGroup"></path>
                <path d="M128,42 L136,42 L136,34 L128,34 L128,42 Z" id="Fill-11" fill="#FFFFFF" sketch:type="MSShapeGroup"></path>
                <path d="M128,42 L136,42 L136,34 L128,34 L128,42 Z" id="Stroke-12" stroke="#000000" stroke-width="2" sketch:type="MSShapeGroup"></path>
                <path d="M128,70 L136,70 L136,62 L128,62 L128,70 Z" id="Fill-13" fill="#FFFFFF" sketch:type="MSShapeGroup"></path>
                <path d="M128,70 L136,70 L136,62 L128,62 L128,70 Z" id="Stroke-14" stroke="#000000" stroke-width="2" sketch:type="MSShapeGroup"></path>
                <path d="M108,24 L116,24 L116,42 L108,42 L108,24 Z" id="Fill-15" fill="#FFFFFF" sketch:type="MSShapeGroup"></path>
                <path d="M108,24 L116,24 L116,42 L108,42 L108,24 Z" id="Stroke-16" stroke="#000000" stroke-width="2" sketch:type="MSShapeGroup"></path>
                <path d="M90,98 L93,98 L93,113 L90,113 L90,98 Z" id="Fill-17" fill="#FFFFFF" sketch:type="MSShapeGroup"></path>
                <path d="M90,98 L93,98 L93,113 L90,113 L90,98 Z" id="Stroke-18" stroke="#000000" stroke-width="2" sketch:type="MSShapeGroup"></path>
                <path d="M77,98 L80,98 L80,113 L77,113 L77,98 Z" id="Fill-19" fill="#FFFFFF" sketch:type="MSShapeGroup"></path>
                <path d="M77,98 L80,98 L80,113 L77,113 L77,98 Z" id="Stroke-20" stroke="#000000" stroke-width="2" sketch:type="MSShapeGroup"></path>
                <path d="M80,110 L90,110 L90,113 L80,113 L80,110 Z" id="Fill-21" fill="#FFFFFF" sketch:type="MSShapeGroup"></path>
                <path d="M80,110 L90,110 L90,113 L80,113 L80,110 Z" id="Stroke-22" stroke="#000000" stroke-width="2" sketch:type="MSShapeGroup"></path>
                <path d="M80,107 L90,107 L90,110 L80,110 L80,107 Z" id="Fill-23" fill="#FFFFFF" sketch:type="MSShapeGroup"></path>
                <path d="M80,107 L90,107 L90,110 L80,110 L80,107 Z" id="Stroke-24" stroke="#000000" stroke-width="2" sketch:type="MSShapeGroup"></path>
                <path d="M80,88 L90,88 L90,104 L80,104 L80,88 Z" id="Fill-25" fill="#FFFFFF" sketch:type="MSShapeGroup"></path>
                <path d="M80,88 L90,88 L90,104 L80,104 L80,88 Z" id="Stroke-26" stroke="#000000" stroke-width="2" sketch:type="MSShapeGroup"></path>
                <path d="M132,33 L132,94 M132,47 L128,47 M132,52 L128,52 M132,57 L128,57 M132,75 L128,75 M132,80 L128,80 M132,85 L128,85 M132,90 L128,90" id="Stroke-27" stroke="#000000" stroke-width="2" sketch:type="MSShapeGroup"></path>
                <path d="M102,42 L122,42 L122,34 L102,34 L102,42 Z" id="Fill-28" fill="#FFFFFF" sketch:type="MSShapeGroup"></path>
                <path d="M102,42 L122,42 L122,34 L102,34 L102,42 Z" id="Stroke-29" stroke="#000000" stroke-width="2" sketch:type="MSShapeGroup"></path>
                <path d="M80,24 L88,24 L88,42 L80,42 L80,24 Z" id="Fill-30" fill="#FFFFFF" sketch:type="MSShapeGroup"></path>
                <path d="M80,24 L88,24 L88,42 L80,42 L80,24 Z" id="Stroke-31" stroke="#000000" stroke-width="2" sketch:type="MSShapeGroup"></path>
                <path d="M74,42 L94,42 L94,34 L74,34 L74,42 Z" id="Fill-32" fill="#FFFFFF" sketch:type="MSShapeGroup"></path>
                <path d="M74,42 L94,42 L94,34 L74,34 L74,42 Z" id="Stroke-33" stroke="#000000" stroke-width="2" sketch:type="MSShapeGroup"></path>
                <path d="M108,52 L116,52 L116,70 L108,70 L108,52 Z" id="Fill-34" fill="#FFFFFF" sketch:type="MSShapeGroup"></path>
                <path d="M108,52 L116,52 L116,70 L108,70 L108,52 Z" id="Stroke-35" stroke="#000000" stroke-width="2" sketch:type="MSShapeGroup"></path>
                <path d="M108,88 L116,88 L116,96 L108,96 L108,88 Z" id="Fill-36" fill="#FFFFFF" sketch:type="MSShapeGroup"></path>
                <path d="M108,88 L116,88 L116,96 L108,96 L108,88 Z" id="Stroke-37" stroke="#000000" stroke-width="2" sketch:type="MSShapeGroup"></path>
                <path d="M102,70 L122,70 L122,62 L102,62 L102,70 Z" id="Fill-38" fill="#FFFFFF" sketch:type="MSShapeGroup"></path>
                <path d="M102,70 L122,70 L122,62 L102,62 L102,70 Z" id="Stroke-39" stroke="#000000" stroke-width="2" sketch:type="MSShapeGroup"></path>
                <path d="M80,52 L88,52 L88,70 L80,70 L80,52 Z" id="Fill-40" fill="#FFFFFF" sketch:type="MSShapeGroup"></path>
                <path d="M80,52 L88,52 L88,70 L80,70 L80,52 Z" id="Stroke-41" stroke="#000000" stroke-width="2" sketch:type="MSShapeGroup"></path>
                <path d="M74,70 L94,70 L94,62 L74,62 L74,70 Z" id="Fill-42" fill="#FFFFFF" sketch:type="MSShapeGroup"></path>
                <path d="M74,70 L94,70 L94,62 L74,62 L74,70 Z" id="Stroke-43" stroke="#000000" stroke-width="2" sketch:type="MSShapeGroup"></path>
                <path d="M138,34 L136,34 M138,62 L136,62" id="Stroke-44" stroke="#000000" stroke-width="2" sketch:type="MSShapeGroup"></path>
                <path d="M55,69 L55,113 L19,113 L19,69 L37,51 L55,69 L55,69 Z" id="Fill-45" fill="#FFFFFF" sketch:type="MSShapeGroup"></path>
                <path d="M55,69 L55,113 L19,113 L19,69 L37,51 L55,69 L55,69 Z" id="Stroke-46" stroke="#000000" stroke-width="2" sketch:type="MSShapeGroup"></path>
                <path d="M39,91 L48,91 L48,107 L39,107 L39,91 Z" id="Fill-47" fill="#FFFFFF" sketch:type="MSShapeGroup"></path>
                <path d="M39,91 L48,91 L48,107 L39,107 L39,91 Z" id="Stroke-48" stroke="#000000" stroke-width="2" sketch:type="MSShapeGroup"></path>
                <path d="M50,91 L37,91" id="Stroke-49" stroke="#000000" stroke-width="2" sketch:type="MSShapeGroup"></path>
                <path d="M17,107 L57,107 L57,113 L17,113 L17,107 Z" id="Fill-50" fill="#FFFFFF" sketch:type="MSShapeGroup"></path>
                <path d="M17,107 L57,107 L57,113 L17,113 L17,107 Z" id="Stroke-51" stroke="#000000" stroke-width="2" sketch:type="MSShapeGroup"></path>
                <path d="M26,91 L33,91 L33,99 L26,99 L26,91 Z" id="Fill-52" fill="#FFFFFF" sketch:type="MSShapeGroup"></path>
                <path d="M26,91 L33,91 L33,99 L26,99 L26,91 Z" id="Stroke-53" stroke="#000000" stroke-width="2" sketch:type="MSShapeGroup"></path>
                <path d="M148,113 L0,113 M50,71 L26,71" id="Stroke-54" stroke="#000000" stroke-width="2" sketch:type="MSShapeGroup"></path>
            </g>
        </g>
    </g>
</svg>