<svg width="333" height="52" viewBox="0 0 333 52" xmlns="http://www.w3.org/2000/svg"><g fill="none"><path d="M19.3 39.87l-6.506 6.58L18.28 52l6.505-6.58-5.486-5.55zm12.455-1.5L50.57 19.338l-5.487-5.55L26.268 32.82l5.487 5.55zm0-26.082l6.66-6.738L32.93 0l-6.662 6.738 5.487 5.55zm-12.456 1.5L.483 32.82l5.487 5.55 18.815-19.032-5.486-5.55zm-.438 13.04l-5.486 5.55L32.19 51.412l5.487-5.55-18.815-19.03zm-6.97-7.05L5.487 13.3 0 18.848l6.407 6.48 5.486-5.55zm25.785 0L18.862.75l-5.486 5.55 18.815 19.03 5.487-5.55zm6.97 7.05l-5.487 5.55 6.354 6.428L51 33.256l-6.354-6.427z" fill="#C61F5D"/><path d="M67.962 18.548h3.23l2.147 8.626h.037l2.812-8.626h2.754l2.793 8.854h.038l2.26-8.854h3.003L83.105 32h-2.64L77.5 22.69h-.038L74.498 32h-2.546l-3.99-13.452zm19.684 6.726c0-1.077.18-2.052.54-2.926.363-.874.866-1.618 1.512-2.232.646-.615 1.412-1.087 2.3-1.416.886-.33 1.855-.494 2.906-.494 1.05 0 2.02.165 2.907.494.888.33 1.654.8 2.3 1.416.646.614 1.15 1.358 1.51 2.232.362.874.542 1.85.542 2.926 0 1.077-.18 2.052-.54 2.926-.363.874-.866 1.618-1.512 2.233-.646.614-1.412 1.086-2.3 1.415-.886.33-1.855.494-2.906.494-1.05 0-2.02-.165-2.907-.494-.887-.33-1.653-.8-2.3-1.415-.645-.615-1.148-1.36-1.51-2.233-.36-.874-.54-1.85-.54-2.926zm3.078 0c0 .633.098 1.213.294 1.738.197.526.48.982.846 1.37.367.385.807.686 1.32.9.514.216 1.087.324 1.72.324s1.206-.108 1.72-.323c.513-.215.953-.516 1.32-.902.367-.386.65-.842.846-1.367.196-.526.294-1.106.294-1.74 0-.62-.098-1.196-.294-1.728-.197-.532-.48-.99-.846-1.378-.367-.386-.807-.687-1.32-.902-.514-.215-1.087-.323-1.72-.323s-1.206.108-1.72.323c-.513.215-.953.516-1.32.902-.367.387-.65.846-.846 1.378-.196.532-.294 1.108-.294 1.73zm13.452-6.726h5.206c.684 0 1.333.066 1.947.2.614.133 1.152.354 1.615.665.462.31.83.728 1.102 1.253.272.526.408 1.182.408 1.967 0 .95-.247 1.757-.74 2.422-.495.666-1.217 1.087-2.167 1.264l3.42 5.68h-3.553l-2.812-5.377h-1.463V32h-2.964V18.548zm2.964 5.567h1.748c.266 0 .548-.01.846-.028.297-.02.566-.076.807-.17.242-.097.44-.245.6-.448.158-.204.237-.49.237-.856 0-.342-.07-.614-.21-.817-.138-.203-.316-.358-.53-.466-.216-.106-.463-.18-.742-.217-.28-.038-.55-.057-.817-.057h-1.938v3.06zm9.462-5.567h2.964v10.716h5.49V32h-8.454V18.548zm10.09 0h4.445c1.077 0 2.1.12 3.07.36.968.242 1.813.63 2.535 1.17.722.538 1.295 1.238 1.72 2.1.424.86.636 1.905.636 3.134 0 1.09-.206 2.05-.618 2.878-.41.83-.965 1.527-1.662 2.09-.697.564-1.5.992-2.413 1.283-.912.29-1.868.437-2.87.437h-4.844V18.548zm2.963 10.716h1.54c.683 0 1.32-.07 1.91-.21.588-.138 1.097-.37 1.528-.692.43-.324.77-.748 1.016-1.273.247-.527.37-1.17.37-1.93 0-.66-.123-1.232-.37-1.72-.248-.487-.58-.89-.998-1.206-.418-.317-.91-.554-1.472-.713-.564-.157-1.156-.236-1.777-.236h-1.748v7.98zm17.08-10.716h5.207c.684 0 1.333.066 1.947.2.614.133 1.152.354 1.615.665.462.31.83.728 1.102 1.253.272.526.408 1.182.408 1.967 0 .95-.247 1.757-.74 2.422-.495.666-1.217 1.087-2.167 1.264l3.42 5.68h-3.553l-2.812-5.377H149.7V32h-2.964V18.548zm2.965 5.567h1.748c.266 0 .548-.01.845-.028.298-.02.567-.076.808-.17.242-.097.44-.245.6-.448.158-.204.237-.49.237-.856 0-.342-.07-.614-.21-.817-.138-.203-.316-.358-.53-.466-.216-.106-.463-.18-.742-.217-.28-.038-.55-.057-.817-.057H149.7v3.06zm9.462-5.567h9.14v2.736h-6.176v2.508h5.833v2.736h-5.834v2.736h6.517V32h-9.48V18.548zm18.506 3.287c-.24-.304-.567-.53-.978-.675-.412-.145-.802-.218-1.17-.218-.214 0-.436.025-.664.076-.228.05-.443.13-.646.238-.203.107-.367.25-.494.427s-.19.393-.19.646c0 .404.152.715.456.93.304.215.687.4 1.15.55.462.153.96.305 1.49.457.533.152 1.03.367 1.492.646.463.28.846.652 1.15 1.12.304.47.456 1.097.456 1.882 0 .747-.14 1.4-.418 1.957-.28.557-.655 1.02-1.13 1.387-.476.366-1.026.64-1.654.816-.627.177-1.288.266-1.985.266-.874 0-1.685-.133-2.432-.4-.746-.265-1.443-.696-2.09-1.29l2.11-2.32c.304.406.687.72 1.15.94.462.223.94.334 1.434.334.24 0 .484-.028.73-.086.25-.057.47-.142.667-.256.197-.114.355-.26.476-.437.12-.177.18-.386.18-.627 0-.405-.155-.725-.465-.96-.31-.234-.7-.433-1.168-.598-.47-.165-.975-.33-1.52-.494-.545-.165-1.05-.386-1.52-.665-.47-.28-.858-.646-1.168-1.102-.31-.455-.466-1.057-.466-1.804 0-.722.142-1.355.427-1.9.286-.545.665-1 1.14-1.368.476-.367 1.023-.643 1.644-.826.62-.184 1.26-.276 1.918-.276.76 0 1.495.108 2.204.323.71.214 1.35.575 1.92 1.082l-2.034 2.223zm3.534 3.44c0-1.078.18-2.053.542-2.927.36-.874.864-1.618 1.51-2.232.646-.615 1.412-1.087 2.3-1.416.886-.33 1.855-.494 2.906-.494 1.05 0 2.02.165 2.907.494.887.33 1.653.8 2.3 1.416.645.614 1.148 1.358 1.51 2.232.36.874.54 1.85.54 2.926 0 1.077-.18 2.052-.54 2.926-.362.874-.865 1.618-1.51 2.233-.647.614-1.413 1.086-2.3 1.415-.887.33-1.856.494-2.907.494-1.05 0-2.02-.165-2.907-.494-.887-.33-1.653-.8-2.3-1.415-.645-.615-1.148-1.36-1.51-2.233-.36-.874-.54-1.85-.54-2.926zm3.078 0c0 .632.098 1.212.294 1.738.197.525.48.98.846 1.367.367.387.807.688 1.32.903.514.215 1.087.323 1.72.323s1.206-.108 1.72-.323c.513-.215.953-.516 1.32-.902.367-.386.65-.842.845-1.367.197-.526.295-1.106.295-1.74 0-.62-.098-1.196-.294-1.728-.197-.532-.48-.99-.846-1.378-.367-.386-.807-.687-1.32-.902-.514-.215-1.087-.323-1.72-.323s-1.206.108-1.72.323c-.513.215-.953.516-1.32.902-.367.387-.65.846-.845 1.378-.197.532-.295 1.108-.295 1.73zm24.795 1.538c0 .798-.12 1.533-.36 2.204-.242.67-.6 1.254-1.075 1.748s-1.067.88-1.776 1.16c-.71.278-1.526.417-2.45.417-.938 0-1.762-.14-2.47-.418-.71-.28-1.302-.665-1.777-1.16-.476-.493-.833-1.076-1.074-1.747-.24-.67-.36-1.406-.36-2.204v-8.265h2.963v8.15c0 .42.066.805.2 1.16.133.355.32.662.56.92.24.26.53.464.865.61.336.145.7.218 1.093.218s.754-.073 1.083-.22c.33-.144.614-.347.855-.607.242-.26.428-.567.56-.922.135-.355.2-.74.2-1.16v-8.15h2.965v8.265zm2.736-8.265h5.207c.684 0 1.333.066 1.947.2.615.133 1.153.354 1.615.665.462.31.83.728 1.1 1.253.274.526.41 1.182.41 1.967 0 .95-.247 1.757-.74 2.422-.495.666-1.217 1.087-2.167 1.264l3.42 5.68h-3.553l-2.812-5.377h-1.463V32h-2.964V18.548zm2.965 5.567h1.748c.266 0 .548-.01.846-.028.296-.02.565-.076.806-.17.24-.097.44-.245.6-.448.157-.204.236-.49.236-.856 0-.342-.07-.614-.21-.817-.138-.203-.316-.358-.53-.466-.216-.106-.463-.18-.742-.217-.28-.038-.55-.057-.817-.057h-1.938v3.06zm18.145-2.07c-.29-.356-.65-.628-1.073-.818-.425-.19-.916-.285-1.473-.285s-1.073.108-1.548.323c-.476.215-.887.516-1.236.902-.348.387-.62.846-.816 1.378-.197.532-.295 1.108-.295 1.73 0 .632.097 1.212.294 1.738.196.525.465.98.807 1.367.343.387.745.688 1.207.903.463.215.96.323 1.492.323.607 0 1.145-.127 1.614-.38.47-.253.855-.608 1.16-1.064l2.47 1.843c-.57.798-1.293 1.387-2.167 1.767-.874.38-1.773.57-2.698.57-1.052 0-2.02-.165-2.908-.494-.887-.33-1.653-.8-2.3-1.415-.645-.615-1.148-1.36-1.51-2.233-.36-.874-.54-1.85-.54-2.926 0-1.077.18-2.052.54-2.926.362-.874.865-1.618 1.51-2.232.647-.615 1.413-1.087 2.3-1.416.887-.33 1.856-.494 2.907-.494.38 0 .775.035 1.186.105.412.07.817.18 1.216.333.4.152.783.355 1.15.608.367.254.697.565.988.932l-2.28 1.862zm4.332-3.497h9.14v2.736h-6.176v2.508h5.833v2.736h-5.834v2.736h6.517V32h-9.48V18.548zm18.506 3.287c-.24-.304-.567-.53-.978-.675-.412-.145-.802-.218-1.17-.218-.214 0-.436.025-.664.076-.228.05-.443.13-.646.238-.203.107-.367.25-.494.427s-.19.393-.19.646c0 .404.152.715.456.93.304.215.687.4 1.15.55.462.153.96.305 1.49.457.533.152 1.03.367 1.493.646.462.28.845.652 1.15 1.12.303.47.455 1.097.455 1.882 0 .747-.14 1.4-.418 1.957-.28.557-.655 1.02-1.13 1.387-.476.366-1.026.64-1.654.816-.627.177-1.288.266-1.985.266-.874 0-1.685-.133-2.432-.4-.746-.265-1.443-.696-2.09-1.29l2.11-2.32c.304.406.687.72 1.15.94.462.223.94.334 1.434.334.24 0 .484-.028.73-.086.25-.057.47-.142.666-.256.197-.114.355-.26.476-.437.12-.177.18-.386.18-.627 0-.405-.155-.725-.465-.96-.31-.234-.7-.433-1.168-.598-.47-.165-.975-.33-1.52-.494-.545-.165-1.05-.386-1.52-.665-.47-.28-.858-.646-1.168-1.102-.31-.455-.466-1.057-.466-1.804 0-.722.142-1.355.427-1.9.286-.545.665-1 1.14-1.368.476-.367 1.023-.643 1.644-.826.62-.184 1.26-.276 1.918-.276.76 0 1.495.108 2.204.323.71.214 1.35.575 1.92 1.082l-2.034 2.223zm8.474-3.287h3.23l2.147 8.626h.037l2.812-8.626h2.754l2.793 8.854h.038l2.26-8.854h3.003L279.375 32h-2.64l-2.965-9.31h-.038L270.768 32h-2.546l-3.99-13.452zm24.358 0h2.45L296.894 32h-3.344l-1.16-2.85h-5.225l-1.12 2.85h-3.27l5.815-13.452zm1.14 3.914l-1.634 4.18h3.287l-1.653-4.18zm9.367-1.292h-3.838v-2.622h10.64v2.622h-3.84V32h-2.963V21.17zm17.1.874c-.29-.355-.65-.627-1.074-.817-.424-.19-.915-.285-1.472-.285-.556 0-1.072.108-1.547.323-.476.215-.887.516-1.236.902-.348.387-.62.846-.817 1.378-.196.532-.294 1.108-.294 1.73 0 .632.098 1.212.295 1.738.197.525.466.98.808 1.367s.744.688 1.207.903c.462.215.96.323 1.49.323.61 0 1.147-.127 1.616-.38.47-.253.856-.608 1.16-1.064l2.47 1.843c-.57.798-1.292 1.387-2.166 1.767-.874.38-1.773.57-2.698.57-1.05 0-2.02-.165-2.907-.494-.888-.33-1.654-.8-2.3-1.415-.646-.615-1.15-1.36-1.51-2.233-.362-.874-.542-1.85-.542-2.926 0-1.077.18-2.052.54-2.926.363-.874.866-1.618 1.512-2.232.646-.615 1.412-1.087 2.3-1.416.886-.33 1.855-.494 2.906-.494.38 0 .776.035 1.188.105.41.07.816.18 1.215.333.4.152.782.355 1.15.608.366.254.696.565.987.932l-2.28 1.862zm4.218-3.496h2.964v5.016h5.756v-5.016h2.964V32h-2.964v-5.814h-5.757V32h-2.965V18.548z" opacity=".8" fill="#000"/></g></svg>