<svg xmlns="http://www.w3.org/2000/svg" viewBox="0 0 312.8 33.5" enable-background="new 0 0 312.8 33.5"><style type="text/css">.st0{fill:#FFFFFF;}</style><title>powerwatch</title><path class="st0" d="M0 .8h11.8c1.6 0 3.1.1 4.7.5 1.4.3 2.7.8 3.8 1.5 1.1.8 2 1.8 2.6 3 .7 1.5 1 3.1 1 4.7.1 1.6-.3 3.2-.9 4.7-.6 1.2-1.4 2.2-2.5 3-1.1.8-2.4 1.3-3.7 1.6-1.5.3-3.1.5-4.7.5h-5v12.4h-7L0 .8zm7 13.5h4.7c.6 0 1.2-.1 1.8-.2.6-.1 1.1-.3 1.6-.6s.9-.7 1.1-1.2c.3-.6.5-1.2.4-1.9 0-.7-.2-1.4-.6-2-.4-.5-.9-.9-1.4-1.1-.6-.3-1.3-.5-2-.5-.7-.1-1.4-.1-2.1-.1H7v7.6zM25.4 16.7c0-2.4.4-4.7 1.3-6.9.8-2 2-3.8 3.6-5.3s3.4-2.6 5.4-3.4c4.5-1.6 9.3-1.6 13.8 0 2 .7 3.9 1.9 5.4 3.4 1.6 1.5 2.8 3.3 3.6 5.3 1.7 4.5 1.7 9.4 0 13.9-.8 2-2 3.8-3.6 5.3s-3.4 2.6-5.4 3.4c-4.5 1.6-9.3 1.6-13.8 0-2-.7-3.9-1.9-5.4-3.4-1.5-1.5-2.8-3.3-3.6-5.3-.9-2.2-1.3-4.6-1.3-7zm7.3 0c0 1.4.2 2.8.7 4.1.4 1.2 1.1 2.3 2 3.2.9.9 1.9 1.7 3.1 2.1 2.6 1 5.5 1 8.1 0 1.2-.5 2.2-1.2 3.1-2.1.9-.9 1.6-2 2-3.2.9-2.7.9-5.6 0-8.2-.4-1.2-1.1-2.3-2-3.3-.9-.9-1.9-1.7-3.1-2.1-2.6-1-5.5-1-8.1 0-1.2.5-2.2 1.2-3.1 2.1-.9.9-1.6 2-2 3.3-.5 1.3-.7 2.7-.7 4.1zM60 .8h7.6l5.1 20.4h.1L79.5.8H86l6.6 21h.1L98 .8h7.1l-9.3 31.8h-6.2l-7-22h-.1l-7 22h-6L60 .8zM107.3.8h21.6v6.5h-14.6v5.9h13.8v6.5h-13.8v6.5h15.4v6.5h-22.4V.8zM134.2.8h12.3c1.6 0 3.1.2 4.6.5 1.4.3 2.7.8 3.8 1.6 1.1.8 2 1.8 2.6 3 .7 1.4 1 3 1 4.6.1 2.1-.6 4.1-1.8 5.7-1.3 1.6-3.1 2.7-5.1 3l8.1 13.4h-8.5L144.6 20h-3.5v12.7h-7l.1-31.9zm7 13.2h4.1c.6 0 1.3 0 2-.1.7 0 1.3-.2 1.9-.4.6-.2 1.1-.6 1.4-1.1.4-.6.6-1.3.6-2s-.1-1.4-.5-1.9c-.3-.5-.8-.8-1.3-1.1-.6-.3-1.1-.4-1.8-.5-.6-.1-1.3-.1-1.9-.1h-4.6l.1 7.2zM159.1.8h3L170 29h.1l8-28.2h3.8l8 28.2h.2L198 .8h3.1l-9.3 31.8h-3.6l-8.1-28.3h-.1l-8 28.3h-3.6L159.1.8zM214.2.8h3.1l13.4 31.8h-3.3l-3.5-8.5H207l-3.6 8.5h-3.1L214.2.8zm1.4 3.2l-7.4 17.4h14.6L215.6 4zM241.1 3.5h-10.9V.8h24.7v2.7h-10.8v29.1h-3V3.5zM284.8 27.6c-1.3 1.9-3.2 3.5-5.3 4.5-2.1.9-4.3 1.4-6.5 1.4-2.3 0-4.6-.4-6.7-1.2-2-.8-3.7-2-5.2-3.5s-2.6-3.3-3.4-5.3c-1.6-4.3-1.6-9.1 0-13.4.8-2 1.9-3.8 3.4-5.3s3.2-2.7 5.2-3.5C268.4.4 270.7 0 273 0c2.1 0 4.1.4 6 1.1 1.9.8 3.6 2.1 4.9 3.8l-2.4 2c-.9-1.4-2.2-2.6-3.8-3.3-1.5-.7-3.1-1-4.7-1-1.9 0-3.8.3-5.6 1.1-1.6.7-3.1 1.7-4.2 3-1.2 1.3-2.1 2.8-2.7 4.5-1.3 3.6-1.3 7.5 0 11.1.6 1.6 1.5 3.2 2.7 4.5 1.2 1.3 2.6 2.3 4.2 3 1.8.7 3.7 1.1 5.6 1.1 1.8 0 3.5-.4 5.1-1.2.8-.4 1.6-.9 2.4-1.5.8-.6 1.5-1.4 2-2.2l2.3 1.6zM289.1.8h3v14h17.8V.8h3v31.8h-3V17.5h-17.8v15.1h-3V.8z"/></svg>