<?xml version="1.0" encoding="UTF-8" standalone="no"?>
<svg width="175px" height="156px" viewBox="0 0 175 156" version="1.1" xmlns="http://www.w3.org/2000/svg" xmlns:xlink="http://www.w3.org/1999/xlink" xmlns:sketch="http://www.bohemiancoding.com/sketch/ns">
    <!-- Generator: Sketch 3.3.2 (12043) - http://www.bohemiancoding.com/sketch -->
    <title>icon governments</title>
    <desc>Created with Sketch.</desc>
    <defs></defs>
    <g id="landings" stroke="none" stroke-width="1" fill="none" fill-rule="evenodd" sketch:type="MSPage">
        <g id="landing-v04g-copy-5" sketch:type="MSArtboardGroup" transform="translate(-230.000000, -2885.000000)">
            <g id="gov" sketch:type="MSLayerGroup" transform="translate(243.000000, 2912.000000)">
                <path d="M148,92 L0,92" id="Stroke-1" stroke="#000000" stroke-width="2" sketch:type="MSShapeGroup"></path>
                <path d="M43,34 L105,34 L105,92 L43,92 L43,34 Z" id="Fill-2" fill="#FFFFFF" sketch:type="MSShapeGroup"></path>
                <path d="M43,34 L105,34 L105,92 L43,92 L43,34 Z" id="Stroke-3" stroke="#000000" stroke-width="2" sketch:type="MSShapeGroup"></path>
                <path d="M9,48 L139,48 L139,92 L9,92 L9,48 Z" id="Fill-4" fill="#FFFFFF" sketch:type="MSShapeGroup"></path>
                <path d="M9,48 L139,48 L139,92 L9,92 L9,48 Z" id="Stroke-5" stroke="#000000" stroke-width="2" sketch:type="MSShapeGroup"></path>
                <path d="M73,10 L73,0" id="Stroke-6" stroke="#000000" stroke-width="2" sketch:type="MSShapeGroup"></path>
                <path d="M105,59.75 L74,38.75 L43,59.75 L43,96 L105,96 L105,59.75 L105,59.75 Z" id="Fill-7" fill="#FFFFFF" sketch:type="MSShapeGroup"></path>
                <path d="M105,59.75 L74,38.75 L43,59.75 L43,96 L105,96 L105,59.75 L105,59.75 Z" id="Stroke-8" stroke="#000000" stroke-width="2" sketch:type="MSShapeGroup"></path>
                <path d="M49.614,34 C49.614,20.745 60.359,10 73.614,10 C86.869,10 97.614,20.745 97.614,34 M21,58 L21,84 M31,58 L31,84 M117,58 L117,84 M127,58 L127,84" id="Stroke-9" stroke="#000000" stroke-width="2" sketch:type="MSShapeGroup"></path>
                <path d="M53,66 L57,66 L57,90 L53,90 L53,66 Z" id="Fill-10" fill="#FFFFFF" sketch:type="MSShapeGroup"></path>
                <path d="M53,66 L57,66 L57,90 L53,90 L53,66 Z" id="Stroke-11" stroke="#000000" stroke-width="2" sketch:type="MSShapeGroup"></path>
                <path d="M62,66 L66,66 L66,90 L62,90 L62,66 Z" id="Fill-12" fill="#FFFFFF" sketch:type="MSShapeGroup"></path>
                <path d="M62,66 L66,66 L66,90 L62,90 L62,66 Z" id="Stroke-13" stroke="#000000" stroke-width="2" sketch:type="MSShapeGroup"></path>
                <path d="M81,66 L85,66 L85,90 L81,90 L81,66 Z" id="Fill-14" fill="#FFFFFF" sketch:type="MSShapeGroup"></path>
                <path d="M81,66 L85,66 L85,90 L81,90 L81,66 Z" id="Stroke-15" stroke="#000000" stroke-width="2" sketch:type="MSShapeGroup"></path>
                <path d="M90,66 L94,66 L94,90 L90,90 L90,66 Z" id="Fill-16" fill="#FFFFFF" sketch:type="MSShapeGroup"></path>
                <path d="M90,66 L94,66 L94,90 L90,90 L90,66 Z" id="Stroke-17" stroke="#000000" stroke-width="2" sketch:type="MSShapeGroup"></path>
            </g>
        </g>
    </g>
</svg>