<?xml version="1.0" encoding="UTF-8" standalone="no"?>
<svg width="175px" height="156px" viewBox="0 0 175 156" version="1.1" xmlns="http://www.w3.org/2000/svg" xmlns:xlink="http://www.w3.org/1999/xlink" xmlns:sketch="http://www.bohemiancoding.com/sketch/ns">
    <!-- Generator: Sketch 3.3.2 (12043) - http://www.bohemiancoding.com/sketch -->
    <title>icon researchers</title>
    <desc>Created with Sketch.</desc>
    <defs></defs>
    <g id="landings" stroke="none" stroke-width="1" fill="none" fill-rule="evenodd" sketch:type="MSPage">
        <g id="landing-v04g-copy-5" sketch:type="MSArtboardGroup" transform="translate(-740.000000, -2885.000000)">
            <g id="res" sketch:type="MSLayerGroup" transform="translate(787.000000, 2929.000000)">
                <path d="M70,44 L10,44 L10,24.206 C10,22.435 11.435,21 13.206,21 L66.794,21 C68.565,21 70,22.435 70,24.206 L70,44 L70,44 Z" id="Fill-1" fill="#FFFFFF" sketch:type="MSShapeGroup"></path>
                <path d="M70,44 L10,44 L10,24.206 C10,22.435 11.435,21 13.206,21 L66.794,21 C68.565,21 70,22.435 70,24.206 L70,44 L70,44 Z" id="Stroke-2" stroke="#000000" stroke-width="2" sketch:type="MSShapeGroup"></path>
                <path d="M33.184,74 L2.816,74 C1.261,74 0,72.739 0,71.184 L0,66.816 C0,65.261 1.261,64 2.816,64 L33.184,64 C34.739,64 36,65.261 36,66.816 L36,71.184 C36,72.739 34.739,74 33.184,74 L33.184,74 Z" id="Fill-3" fill="#FFFFFF" sketch:type="MSShapeGroup"></path>
                <path d="M33.184,74 L2.816,74 C1.261,74 0,72.739 0,71.184 L0,66.816 C0,65.261 1.261,64 2.816,64 L33.184,64 C34.739,64 36,65.261 36,66.816 L36,71.184 C36,72.739 34.739,74 33.184,74 L33.184,74 Z" id="Stroke-4" stroke="#000000" stroke-width="2" sketch:type="MSShapeGroup"></path>
                <path d="M77.184,74 L46.816,74 C45.261,74 44,72.739 44,71.184 L44,66.816 C44,65.261 45.261,64 46.816,64 L77.184,64 C78.739,64 80,65.261 80,66.816 L80,71.184 C80,72.739 78.739,74 77.184,74 L77.184,74 Z" id="Fill-5" fill="#FFFFFF" sketch:type="MSShapeGroup"></path>
                <path d="M77.184,74 L46.816,74 C45.261,74 44,72.739 44,71.184 L44,66.816 C44,65.261 45.261,64 46.816,64 L77.184,64 C78.739,64 80,65.261 80,66.816 L80,71.184 C80,72.739 78.739,74 77.184,74 L77.184,74 Z" id="Stroke-6" stroke="#000000" stroke-width="2" sketch:type="MSShapeGroup"></path>
                <path d="M13,11 L28,11 L28,21 L13,21 L13,11 Z" id="Fill-7" fill="#FFFFFF" sketch:type="MSShapeGroup"></path>
                <path d="M13,11 L28,11 L28,21 L13,21 L13,11 Z" id="Stroke-8" stroke="#000000" stroke-width="2" sketch:type="MSShapeGroup"></path>
                <path d="M15,4 L26,4 L26,11 L15,11 L15,4 Z" id="Fill-9" fill="#FFFFFF" sketch:type="MSShapeGroup"></path>
                <path d="M15,4 L26,4 L26,11 L15,11 L15,4 Z" id="Stroke-10" stroke="#000000" stroke-width="2" sketch:type="MSShapeGroup"></path>
                <path d="M26,4 L15,4 C13.895,4 13,3.105 13,2 C13,0.895 13.895,0 15,0 L26,0 C27.105,0 28,0.895 28,2 C28,3.105 27.105,4 26,4 L26,4 Z" id="Fill-11" fill="#FFFFFF" sketch:type="MSShapeGroup"></path>
                <path d="M26,4 L15,4 C13.895,4 13,3.105 13,2 C13,0.895 13.895,0 15,0 L26,0 C27.105,0 28,0.895 28,2 C28,3.105 27.105,4 26,4 L26,4 Z" id="Stroke-12" stroke="#000000" stroke-width="2" sketch:type="MSShapeGroup"></path>
                <path d="M52,11 L67,11 L67,21 L52,21 L52,11 Z" id="Fill-13" fill="#FFFFFF" sketch:type="MSShapeGroup"></path>
                <path d="M52,11 L67,11 L67,21 L52,21 L52,11 Z" id="Stroke-14" stroke="#000000" stroke-width="2" sketch:type="MSShapeGroup"></path>
                <path d="M54,4 L65,4 L65,11 L54,11 L54,4 Z" id="Fill-15" fill="#FFFFFF" sketch:type="MSShapeGroup"></path>
                <path d="M54,4 L65,4 L65,11 L54,11 L54,4 Z" id="Stroke-16" stroke="#000000" stroke-width="2" sketch:type="MSShapeGroup"></path>
                <path d="M65,4 L54,4 C52.895,4 52,3.105 52,2 C52,0.895 52.895,0 54,0 L65,0 C66.105,0 67,0.895 67,2 C67,3.105 66.105,4 65,4 L65,4 Z" id="Fill-17" fill="#FFFFFF" sketch:type="MSShapeGroup"></path>
                <path d="M65,4 L54,4 C52.895,4 52,3.105 52,2 C52,0.895 52.895,0 54,0 L65,0 C66.105,0 67,0.895 67,2 C67,3.105 66.105,4 65,4 L65,4 Z" id="Stroke-18" stroke="#000000" stroke-width="2" sketch:type="MSShapeGroup"></path>
                <path d="M34,44 L10.604,44 C8.508,44 6.704,45.479 6.293,47.534 L3,64 L34,64 L34,44 L34,44 Z" id="Fill-19" fill="#FFFFFF" sketch:type="MSShapeGroup"></path>
                <path d="M34,44 L10.604,44 C8.508,44 6.704,45.479 6.293,47.534 L3,64 L34,64 L34,44 L34,44 Z" id="Stroke-20" stroke="#000000" stroke-width="2" sketch:type="MSShapeGroup"></path>
                <path d="M69.396,44 L46,44 L46,64 L77,64 L73.707,47.534 C73.296,45.479 71.492,44 69.396,44 L69.396,44 Z" id="Fill-21" fill="#FFFFFF" sketch:type="MSShapeGroup"></path>
                <path d="M69.396,44 L46,44 L46,64 L77,64 L73.707,47.534 C73.296,45.479 71.492,44 69.396,44 L69.396,44 Z" id="Stroke-22" stroke="#000000" stroke-width="2" sketch:type="MSShapeGroup"></path>
                <path d="M45,31 C45,33.761 42.761,36 40,36 C37.239,36 35,33.761 35,31 C35,28.239 37.239,26 40,26 C42.761,26 45,28.239 45,31 L45,31 Z" id="Fill-23" fill="#FFFFFF" sketch:type="MSShapeGroup"></path>
                <path d="M45,31 C45,33.761 42.761,36 40,36 C37.239,36 35,33.761 35,31 C35,28.239 37.239,26 40,26 C42.761,26 45,28.239 45,31 L45,31 Z" id="Stroke-24" stroke="#000000" stroke-width="2" sketch:type="MSShapeGroup"></path>
            </g>
        </g>
    </g>
</svg>