<?xml version="1.0" encoding="UTF-8" standalone="no"?>
<svg width="175px" height="156px" viewBox="0 0 175 156" version="1.1" xmlns="http://www.w3.org/2000/svg" xmlns:xlink="http://www.w3.org/1999/xlink" xmlns:sketch="http://www.bohemiancoding.com/sketch/ns">
    <!-- Generator: Sketch 3.3.2 (12043) - http://www.bohemiancoding.com/sketch -->
    <title>icon organisations</title>
    <desc>Created with Sketch.</desc>
    <defs></defs>
    <g id="landings" stroke="none" stroke-width="1" fill="none" fill-rule="evenodd" sketch:type="MSPage">
        <g id="landing-v04g-copy-5" sketch:type="MSArtboardGroup" transform="translate(-740.000000, -2700.000000)">
            <g id="org" sketch:type="MSLayerGroup" transform="translate(749.000000, 2706.000000)">
                <path d="M0,140 L155.858229,140" id="Line-Copy" stroke="#000000" stroke-width="2" stroke-linecap="square" sketch:type="MSShapeGroup"></path>
                <path d="M56,140 L34,140 L34,50 L45,16 L56,50 L56,140 L56,140 Z" id="Fill-1" fill="#FFFFFF" sketch:type="MSShapeGroup"></path>
                <path d="M56,140 L34,140 L34,50 L45,16 L56,50 L56,140 L56,140 Z" id="Stroke-2" stroke="#000000" stroke-width="2" sketch:type="MSShapeGroup"></path>
                <path d="M55.826,48 C55.526,40 50.77,33.882 44.928,33.882 C39.086,33.882 34.33,40 34.03,48 L34,48 L34,114 L56,114 L56,48 L55.826,48 L55.826,48 Z" id="Fill-3" fill="#FFFFFF" sketch:type="MSShapeGroup"></path>
                <path d="M55.826,48 C55.526,40 50.77,33.882 44.928,33.882 C39.086,33.882 34.33,40 34.03,48 L34,48 L34,114 L56,114 L56,48 L55.826,48 L55.826,48 Z" id="Stroke-4" stroke="#000000" stroke-width="2" sketch:type="MSShapeGroup"></path>
                <path d="M48,140 L112,140 L112,60 L48,60 L48,140 Z" id="Fill-5" fill="#FFFFFF" sketch:type="MSShapeGroup"></path>
                <path d="M48,140 L112,140 L112,60 L48,60 L48,140 Z" id="Stroke-6" stroke="#000000" stroke-width="2" sketch:type="MSShapeGroup"></path>
                <path d="M18,110 L130,110 L130,140 L18,140 L18,110 Z" id="Fill-7" fill="#FFFFFF" sketch:type="MSShapeGroup"></path>
                <path d="M18,110 L130,110 L130,140 L18,140 L18,110 Z" id="Stroke-8" stroke="#000000" stroke-width="2" sketch:type="MSShapeGroup"></path>
                <path d="M80,10 L80,0 L80,10 L80,10 Z" id="Fill-9" fill="#FFFFFF" sketch:type="MSShapeGroup"></path>
                <path d="M80,10 L80,0 L80,10 L80,10 Z" id="Stroke-10" stroke="#000000" stroke-width="2" sketch:type="MSShapeGroup"></path>
                <path d="M62,26 L98,26 L98,140 L62,140 L62,26 Z" id="Fill-11" fill="#FFFFFF" sketch:type="MSShapeGroup"></path>
                <path d="M62,26 L98,26 L98,140 L62,140 L62,26 Z" id="Stroke-12" stroke="#000000" stroke-width="2" sketch:type="MSShapeGroup"></path>
                <path d="M66,26 L94,26 L94,18 L66,18 L66,26 Z" id="Fill-13" fill="#FFFFFF" sketch:type="MSShapeGroup"></path>
                <path d="M66,26 L94,26 L94,18 L66,18 L66,26 Z" id="Stroke-14" stroke="#000000" stroke-width="2" sketch:type="MSShapeGroup"></path>
                <path d="M70,18 L90,18 L90,10 L70,10 L70,18 Z" id="Fill-15" fill="#FFFFFF" sketch:type="MSShapeGroup"></path>
                <path d="M70,18 L90,18 L90,10 L70,10 L70,18 Z" id="Stroke-16" stroke="#000000" stroke-width="2" sketch:type="MSShapeGroup"></path>
                <path d="M72,108 L72,36.01 L72,108 L72,108 Z" id="Fill-17" fill="#FFFFFF" sketch:type="MSShapeGroup"></path>
                <path d="M72,108 L72,36.01 L72,108 L72,108 Z" id="Stroke-18" stroke="#000000" stroke-width="2" sketch:type="MSShapeGroup"></path>
                <path d="M80,108 L80,36.01 L80,108 L80,108 Z" id="Fill-19" fill="#FFFFFF" sketch:type="MSShapeGroup"></path>
                <path d="M80,108 L80,36.01 L80,108 L80,108 Z" id="Stroke-20" stroke="#000000" stroke-width="2" sketch:type="MSShapeGroup"></path>
                <path d="M88,108 L88,36.01 L88,108 L88,108 Z" id="Fill-21" fill="#FFFFFF" sketch:type="MSShapeGroup"></path>
                <path d="M88,108 L88,36.01 L88,108 L88,108 Z" id="Stroke-22" stroke="#000000" stroke-width="2" sketch:type="MSShapeGroup"></path>
                <path d="M87.978,126 C87.758,120 84.276,117.39 80,117.39 C75.724,117.39 72.242,120 72.022,126 L72,126 L72,140 L88,140 L88,126 L87.978,126 L87.978,126 Z" id="Fill-23" fill="#FFFFFF" sketch:type="MSShapeGroup"></path>
                <path d="M87.978,126 C87.758,120 84.276,117.39 80,117.39 C75.724,117.39 72.242,120 72.022,126 L72,126 L72,140 L88,140 L88,126 L87.978,126 L87.978,126 Z" id="Stroke-24" stroke="#000000" stroke-width="2" sketch:type="MSShapeGroup"></path>
                <path d="M42,50 L42,54 M42,58 L42,62 M42,66 L42,70 M42,74 L42,78 M42,82 L42,86 M42,90 L42,94 M42,98 L42,102 M48,50 L48,54" id="Stroke-25" stroke="#000000" stroke-width="2" sketch:type="MSShapeGroup"></path>
            </g>
        </g>
    </g>
</svg>