<?xml version="1.0" encoding="utf-8"?>
<!-- Generator: Adobe Illustrator 20.0.0, SVG Export Plug-In . SVG Version: 6.00 Build 0)  -->
<svg version="1.1" id="Capa_1" xmlns="http://www.w3.org/2000/svg" xmlns:xlink="http://www.w3.org/1999/xlink" x="0px" y="0px"
	 viewBox="0 0 312.8 33.5" style="enable-background:new 0 0 312.8 33.5;" xml:space="preserve">
<style type="text/css">
	.st0{fill:#FFFFFF;}
</style>
<title>powerwatch</title>
<path class="st0" d="M0,0.8h11.8c1.6,0,3.1,0.1,4.7,0.5c1.4,0.3,2.7,0.8,3.8,1.5c1.1,0.8,2,1.8,2.6,3c0.7,1.5,1,3.1,1,4.7
	c0.1,1.6-0.3,3.2-0.9,4.7c-0.6,1.2-1.4,2.2-2.5,3c-1.1,0.8-2.4,1.3-3.7,1.6c-1.5,0.3-3.1,0.5-4.7,0.5H7.1v12.4h-7L0,0.8L0,0.8z
	 M7,14.3h4.7c0.6,0,1.2-0.1,1.8-0.2c0.6-0.1,1.1-0.3,1.6-0.6c0.5-0.3,0.9-0.7,1.1-1.2c0.3-0.6,0.5-1.2,0.4-1.9c0-0.7-0.2-1.4-0.6-2
	c-0.4-0.5-0.9-0.9-1.4-1.1c-0.6-0.3-1.3-0.5-2-0.5c-0.7-0.1-1.4-0.1-2.1-0.1H7L7,14.3L7,14.3z"/>
<path class="st0" d="M25.4,16.7c0-2.4,0.4-4.7,1.3-6.9c0.8-2,2-3.8,3.6-5.3c1.6-1.5,3.4-2.6,5.4-3.4c4.5-1.6,9.3-1.6,13.8,0
	c2,0.7,3.9,1.9,5.4,3.4c1.6,1.5,2.8,3.3,3.6,5.3c1.7,4.5,1.7,9.4,0,13.9c-0.8,2-2,3.8-3.6,5.3c-1.6,1.5-3.4,2.6-5.4,3.4
	c-4.5,1.6-9.3,1.6-13.8,0c-2-0.7-3.9-1.9-5.4-3.4c-1.5-1.5-2.8-3.3-3.6-5.3C25.8,21.5,25.4,19.1,25.4,16.7z M32.7,16.7
	c0,1.4,0.2,2.8,0.7,4.1c0.4,1.2,1.1,2.3,2,3.2c0.9,0.9,1.9,1.7,3.1,2.1c2.6,1,5.5,1,8.1,0c1.2-0.5,2.2-1.2,3.1-2.1
	c0.9-0.9,1.6-2,2-3.2c0.9-2.7,0.9-5.6,0-8.2c-0.4-1.2-1.1-2.3-2-3.3c-0.9-0.9-1.9-1.7-3.1-2.1c-2.6-1-5.5-1-8.1,0
	c-1.2,0.5-2.2,1.2-3.1,2.1c-0.9,0.9-1.6,2-2,3.3C32.9,13.9,32.7,15.3,32.7,16.7L32.7,16.7z"/>
<path class="st0" d="M60,0.8h7.6l5.1,20.4h0.1l6.7-20.4H86l6.6,21h0.1l5.3-21h7.1l-9.3,31.8h-6.2l-7-22h-0.1l-7,22h-6L60,0.8z"/>
<path class="st0" d="M107.3,0.8h21.6v6.5h-14.6v5.9h13.8v6.5h-13.8v6.5h15.4v6.5h-22.4V0.8z"/>
<path class="st0" d="M134.2,0.8h12.3c1.6,0,3.1,0.2,4.6,0.5c1.4,0.3,2.7,0.8,3.8,1.6c1.1,0.8,2,1.8,2.6,3c0.7,1.4,1,3,1,4.6
	c0.1,2.1-0.6,4.1-1.8,5.7c-1.3,1.6-3.1,2.7-5.1,3l8.1,13.4h-8.5L144.6,20h-3.5v12.7h-7L134.2,0.8L134.2,0.8z M141.2,14h4.1
	c0.6,0,1.3,0,2-0.1c0.7,0,1.3-0.2,1.9-0.4c0.6-0.2,1.1-0.6,1.4-1.1c0.4-0.6,0.6-1.3,0.6-2c0-0.7-0.1-1.4-0.5-1.9
	c-0.3-0.5-0.8-0.8-1.3-1.1c-0.6-0.3-1.1-0.4-1.8-0.5c-0.6-0.1-1.3-0.1-1.9-0.1h-4.6L141.2,14L141.2,14z"/>
<path class="st0" d="M159.1,0.8h3L170,29h0.1l8-28.2h3.8l8,28.2h0.2L198,0.8h3.1l-9.3,31.8h-3.6l-8.1-28.3H180l-8,28.3h-3.6
	L159.1,0.8z"/>
<path class="st0" d="M214.2,0.8h3.1l13.4,31.8h-3.3l-3.5-8.5H207l-3.6,8.5h-3.1L214.2,0.8z M215.6,4l-7.4,17.4h14.6L215.6,4z"/>
<path class="st0" d="M241.1,3.5h-10.9V0.8h24.7v2.7h-10.8v29.1h-3V3.5z"/>
<path class="st0" d="M284.8,27.6c-1.3,1.9-3.2,3.5-5.3,4.5c-2.1,0.9-4.3,1.4-6.5,1.4c-2.3,0-4.6-0.4-6.7-1.2c-2-0.8-3.7-2-5.2-3.5
	c-1.5-1.5-2.6-3.3-3.4-5.3c-1.6-4.3-1.6-9.1,0-13.4c0.8-2,1.9-3.8,3.4-5.3c1.5-1.5,3.2-2.7,5.2-3.5c2.1-0.9,4.4-1.3,6.7-1.3
	c2.1,0,4.1,0.4,6,1.1c1.9,0.8,3.6,2.1,4.9,3.8l-2.4,2c-0.9-1.4-2.2-2.6-3.8-3.3c-1.5-0.7-3.1-1-4.7-1c-1.9,0-3.8,0.3-5.6,1.1
	c-1.6,0.7-3.1,1.7-4.2,3c-1.2,1.3-2.1,2.8-2.7,4.5c-1.3,3.6-1.3,7.5,0,11.1c0.6,1.6,1.5,3.2,2.7,4.5c1.2,1.3,2.6,2.3,4.2,3
	c1.8,0.7,3.7,1.1,5.6,1.1c1.8,0,3.5-0.4,5.1-1.2c0.8-0.4,1.6-0.9,2.4-1.5c0.8-0.6,1.5-1.4,2-2.2L284.8,27.6z"/>
<path class="st0" d="M289.1,0.8h3v14h17.8v-14h3v31.8h-3V17.5h-17.8v15.1h-3V0.8z"/>
</svg>
