<?xml version="1.0" encoding="UTF-8" standalone="no"?>
<svg width="175px" height="156px" viewBox="0 0 175 156" version="1.1" xmlns="http://www.w3.org/2000/svg" xmlns:xlink="http://www.w3.org/1999/xlink" xmlns:sketch="http://www.bohemiancoding.com/sketch/ns">
    <!-- Generator: Sketch 3.3.2 (12043) - http://www.bohemiancoding.com/sketch -->
    <title>icon developers</title>
    <desc>Created with Sketch.</desc>
    <defs></defs>
    <g id="landings" stroke="none" stroke-width="1" fill="none" fill-rule="evenodd" sketch:type="MSPage">
        <g id="landing-v04g-copy-5" sketch:type="MSArtboardGroup" transform="translate(-230.000000, -3077.000000)">
            <g id="dev" sketch:type="MSLayerGroup" transform="translate(264.000000, 3117.000000)">
                <path d="M96.142,75 L11.858,75 C9.727,75 8,73.273 8,71.142 L8,3.858 C8,1.727 9.727,0 11.858,0 L96.142,0 C98.273,0 100,1.727 100,3.858 L100,71.142 C100,73.273 98.273,75 96.142,75 L96.142,75 Z" id="Fill-1" fill="#FFFFFF" sketch:type="MSShapeGroup"></path>
                <path d="M96.142,75 L11.858,75 C9.727,75 8,73.273 8,71.142 L8,3.858 C8,1.727 9.727,0 11.858,0 L96.142,0 C98.273,0 100,1.727 100,3.858 L100,71.142 C100,73.273 98.273,75 96.142,75 L96.142,75 Z" id="Stroke-2" stroke="#000000" stroke-width="2" sketch:type="MSShapeGroup"></path>
                <path d="M14,6 L94,6 L94,62 L14,62 L14,6 Z" id="Fill-3" fill="#FFFFFF" sketch:type="MSShapeGroup"></path>
                <path d="M14,6 L94,6 L94,62 L14,62 L14,6 Z" id="Stroke-4" stroke="#000000" stroke-width="2" sketch:type="MSShapeGroup"></path>
                <path d="M106.723,75 L1.277,75 C0.572,75 0,74.428 0,73.723 L0,69.277 C0,68.572 0.572,68 1.277,68 L106.723,68 C107.428,68 108,68.572 108,69.277 L108,73.723 C108,74.428 107.428,75 106.723,75 L106.723,75 Z" id="Fill-5" fill="#FFFFFF" sketch:type="MSShapeGroup"></path>
                <path d="M106.723,75 L1.277,75 C0.572,75 0,74.428 0,73.723 L0,69.277 C0,68.572 0.572,68 1.277,68 L106.723,68 C107.428,68 108,68.572 108,69.277 L108,73.723 C108,74.428 107.428,75 106.723,75 L106.723,75 Z" id="Stroke-6" stroke="#000000" stroke-width="2" sketch:type="MSShapeGroup"></path>
                <path d="M50,26 C50,26.552 49.552,27 49,27 C48.448,27 48,26.552 48,26 C48,25.448 48.448,25 49,25 C49.552,25 50,25.448 50,26 L50,26 Z M55,26 C55,26.552 54.552,27 54,27 C53.448,27 53,26.552 53,26 C53,25.448 53.448,25 54,25 C54.552,25 55,25.448 55,26 L55,26 Z M60,26 C60,26.552 59.552,27 59,27 C58.448,27 58,26.552 58,26 C58,25.448 58.448,25 59,25 C59.552,25 60,25.448 60,26 L60,26 Z M43,21 L84,21 L84,56 L43,56 L43,21 Z" id="Stroke-7" stroke="#000000" stroke-width="2" sketch:type="MSShapeGroup"></path>
                <path d="M30,12 L71,12 L71,47 L30,47 L30,12 Z" id="Fill-8" fill="#FFFFFF" sketch:type="MSShapeGroup"></path>
                <path d="M30,12 L71,12 L71,47 L30,47 L30,12 Z" id="Stroke-9" stroke="#000000" stroke-width="2" sketch:type="MSShapeGroup"></path>
                <path d="M37,17 C37,17.552 36.552,18 36,18 C35.448,18 35,17.552 35,17 C35,16.448 35.448,16 36,16 C36.552,16 37,16.448 37,17 L37,17 Z M42,17 C42,17.552 41.552,18 41,18 C40.448,18 40,17.552 40,17 C40,16.448 40.448,16 41,16 C41.552,16 42,16.448 42,17 L42,17 Z M47,17 C47,17.552 46.552,18 46,18 C45.448,18 45,17.552 45,17 C45,16.448 45.448,16 46,16 C46.552,16 47,16.448 47,17 L47,17 Z" id="Stroke-10" stroke="#000000" stroke-width="2" sketch:type="MSShapeGroup"></path>
            </g>
        </g>
    </g>
</svg>