<svg width="175" height="156" viewBox="0 0 175 156" xmlns="http://www.w3.org/2000/svg"><title>icon governments</title><desc>Created with Sketch.</desc><g fill="none"><path d="M161 119H13" stroke="#000" stroke-width="2"/><path d="M56 61h62v58H56V61z" fill="#fff"/><path d="M56 61h62v58H56V61z" stroke="#000" stroke-width="2"/><path d="M22 75h130v44H22V75z" fill="#fff"/><path d="M22 75h130v44H22V75z" stroke="#000" stroke-width="2"/><path d="M86 37V27" stroke="#000" stroke-width="2"/><path d="M118 86.75l-31-21-31 21V123h62V86.75z" fill="#fff"/><path d="M118 86.75l-31-21-31 21V123h62V86.75z" stroke="#000" stroke-width="2"/><path d="M62.614 61c0-13.255 10.745-24 24-24s24 10.745 24 24M34 85v26m10-26v26m86-26v26m10-26v26" stroke="#000" stroke-width="2"/><path d="M66 93h4v24h-4V93z" fill="#fff"/><path d="M66 93h4v24h-4V93z" stroke="#000" stroke-width="2"/><path d="M75 93h4v24h-4V93z" fill="#fff"/><path d="M75 93h4v24h-4V93z" stroke="#000" stroke-width="2"/><path d="M94 93h4v24h-4V93z" fill="#fff"/><path d="M94 93h4v24h-4V93z" stroke="#000" stroke-width="2"/><path d="M103 93h4v24h-4V93z" fill="#fff"/><path d="M103 93h4v24h-4V93z" stroke="#000" stroke-width="2"/></g></svg>