<svg width="175" height="156" viewBox="0 0 175 156" xmlns="http://www.w3.org/2000/svg"><title>icon citizens</title><desc>Created with Sketch.</desc><g fill="none"><path d="M58 86h6V74h-6v12z" fill="#fff"/><path d="M58 86h6V74h-6v12z" stroke="#000" stroke-width="2" stroke-linejoin="bevel"/><path d="M36 135h84v-28H36v28z" fill="#fff"/><path d="M36 135h84v-28H36v28z" stroke="#000" stroke-width="2"/><path d="M81 135h60V38H81v97z" fill="#fff"/><path d="M81 135h60V38H81v97z" stroke="#000" stroke-width="2"/><path d="M77 38h68V28H77v10z" fill="#fff"/><path d="M77 38h68V28H77v10z" stroke="#000" stroke-width="2"/><path d="M91 28h4v-6h-4v6z" fill="#fff"/><path d="M91 28h4v-6h-4v6z" stroke="#000" stroke-width="2"/><path d="M141 64h8v-8h-8v8z" fill="#fff"/><path d="M141 64h8v-8h-8v8z" stroke="#000" stroke-width="2"/><path d="M141 92h8v-8h-8v8z" fill="#fff"/><path d="M141 92h8v-8h-8v8z" stroke="#000" stroke-width="2"/><path d="M121 46h8v18h-8V46z" fill="#fff"/><path d="M121 46h8v18h-8V46z" stroke="#000" stroke-width="2"/><path d="M103 120h3v15h-3v-15z" fill="#fff"/><path d="M103 120h3v15h-3v-15z" stroke="#000" stroke-width="2"/><path d="M90 120h3v15h-3v-15z" fill="#fff"/><path d="M90 120h3v15h-3v-15z" stroke="#000" stroke-width="2"/><path d="M93 132h10v3H93v-3z" fill="#fff"/><path d="M93 132h10v3H93v-3z" stroke="#000" stroke-width="2"/><path d="M93 129h10v3H93v-3z" fill="#fff"/><path d="M93 129h10v3H93v-3z" stroke="#000" stroke-width="2"/><path d="M93 110h10v16H93v-16z" fill="#fff"/><path d="M93 110h10v16H93v-16z" stroke="#000" stroke-width="2"/><path d="M145 55v61m0-47h-4m4 5h-4m4 5h-4m4 18h-4m4 5h-4m4 5h-4m4 5h-4" stroke="#000" stroke-width="2"/><path d="M115 64h20v-8h-20v8z" fill="#fff"/><path d="M115 64h20v-8h-20v8z" stroke="#000" stroke-width="2"/><path d="M93 46h8v18h-8V46z" fill="#fff"/><path d="M93 46h8v18h-8V46z" stroke="#000" stroke-width="2"/><path d="M87 64h20v-8H87v8z" fill="#fff"/><path d="M87 64h20v-8H87v8z" stroke="#000" stroke-width="2"/><path d="M121 74h8v18h-8V74z" fill="#fff"/><path d="M121 74h8v18h-8V74z" stroke="#000" stroke-width="2"/><path d="M121 110h8v8h-8v-8z" fill="#fff"/><path d="M121 110h8v8h-8v-8z" stroke="#000" stroke-width="2"/><path d="M115 92h20v-8h-20v8z" fill="#fff"/><path d="M115 92h20v-8h-20v8z" stroke="#000" stroke-width="2"/><path d="M93 74h8v18h-8V74z" fill="#fff"/><path d="M93 74h8v18h-8V74z" stroke="#000" stroke-width="2"/><path d="M87 92h20v-8H87v8z" fill="#fff"/><path d="M87 92h20v-8H87v8z" stroke="#000" stroke-width="2"/><path d="M151 56h-2m2 28h-2" stroke="#000" stroke-width="2"/><path d="M68 91v44H32V91l18-18 18 18z" fill="#fff"/><path d="M68 91v44H32V91l18-18 18 18z" stroke="#000" stroke-width="2"/><path d="M52 113h9v16h-9v-16z" fill="#fff"/><path d="M52 113h9v16h-9v-16z" stroke="#000" stroke-width="2"/><path d="M63 113H50" stroke="#000" stroke-width="2"/><path d="M30 129h40v6H30v-6z" fill="#fff"/><path d="M30 129h40v6H30v-6z" stroke="#000" stroke-width="2"/><path d="M39 113h7v8h-7v-8z" fill="#fff"/><path d="M39 113h7v8h-7v-8z" stroke="#000" stroke-width="2"/><path d="M161 135H13m50-42H39" stroke="#000" stroke-width="2"/></g></svg>