<svg width="175" height="156" viewBox="0 0 175 156" xmlns="http://www.w3.org/2000/svg"><title>icon organisations</title><desc>Created with Sketch.</desc><g fill="none"><path d="M9 146h155.858" stroke="#000" stroke-width="2" stroke-linecap="square"/><path d="M65 146H43V56l11-34 11 34v90z" fill="#fff"/><path d="M65 146H43V56l11-34 11 34v90z" stroke="#000" stroke-width="2"/><path d="M64.826 54c-.3-8-5.056-14.118-10.898-14.118S43.33 46 43.03 54H43v66h22V54h-.174z" fill="#fff"/><path d="M64.826 54c-.3-8-5.056-14.118-10.898-14.118S43.33 46 43.03 54H43v66h22V54h-.174z" stroke="#000" stroke-width="2"/><path d="M57 146h64V66H57v80z" fill="#fff"/><path d="M57 146h64V66H57v80z" stroke="#000" stroke-width="2"/><path d="M27 116h112v30H27v-30z" fill="#fff"/><path d="M27 116h112v30H27v-30z" stroke="#000" stroke-width="2"/><path d="M89 16V6v10z" fill="#fff"/><path d="M89 16V6v10z" stroke="#000" stroke-width="2"/><path d="M71 32h36v114H71V32z" fill="#fff"/><path d="M71 32h36v114H71V32z" stroke="#000" stroke-width="2"/><path d="M75 32h28v-8H75v8z" fill="#fff"/><path d="M75 32h28v-8H75v8z" stroke="#000" stroke-width="2"/><path d="M79 24h20v-8H79v8z" fill="#fff"/><path d="M79 24h20v-8H79v8z" stroke="#000" stroke-width="2"/><path d="M81 114V42.01 114z" fill="#fff"/><path d="M81 114V42.01 114z" stroke="#000" stroke-width="2"/><path d="M89 114V42.01 114z" fill="#fff"/><path d="M89 114V42.01 114z" stroke="#000" stroke-width="2"/><path d="M97 114V42.01 114z" fill="#fff"/><path d="M97 114V42.01 114z" stroke="#000" stroke-width="2"/><path d="M96.978 132c-.22-6-3.702-8.61-7.978-8.61S81.242 126 81.022 132H81v14h16v-14h-.022z" fill="#fff"/><path d="M96.978 132c-.22-6-3.702-8.61-7.978-8.61S81.242 126 81.022 132H81v14h16v-14h-.022z" stroke="#000" stroke-width="2"/><path d="M51 56v4m0 4v4m0 4v4m0 4v4m0 4v4m0 4v4m0 4v4m6-52v4" stroke="#000" stroke-width="2"/></g></svg>