<svg width="175" height="156" viewBox="0 0 175 156" xmlns="http://www.w3.org/2000/svg"><title>icon researchers</title><desc>Created with Sketch.</desc><g fill="none"><path d="M117 88H57V68.206C57 66.436 58.435 65 60.206 65h53.588c1.77 0 3.206 1.435 3.206 3.206V88z" fill="#fff"/><path d="M117 88H57V68.206C57 66.436 58.435 65 60.206 65h53.588c1.77 0 3.206 1.435 3.206 3.206V88z" stroke="#000" stroke-width="2"/><path d="M80.184 118H49.816C48.26 118 47 116.74 47 115.184v-4.368c0-1.555 1.26-2.816 2.816-2.816h30.368c1.555 0 2.816 1.26 2.816 2.816v4.368c0 1.555-1.26 2.816-2.816 2.816z" fill="#fff"/><path d="M80.184 118H49.816C48.26 118 47 116.74 47 115.184v-4.368c0-1.555 1.26-2.816 2.816-2.816h30.368c1.555 0 2.816 1.26 2.816 2.816v4.368c0 1.555-1.26 2.816-2.816 2.816z" stroke="#000" stroke-width="2"/><path d="M124.184 118H93.816C92.26 118 91 116.74 91 115.184v-4.368c0-1.555 1.26-2.816 2.816-2.816h30.368c1.555 0 2.816 1.26 2.816 2.816v4.368c0 1.555-1.26 2.816-2.816 2.816z" fill="#fff"/><path d="M124.184 118H93.816C92.26 118 91 116.74 91 115.184v-4.368c0-1.555 1.26-2.816 2.816-2.816h30.368c1.555 0 2.816 1.26 2.816 2.816v4.368c0 1.555-1.26 2.816-2.816 2.816z" stroke="#000" stroke-width="2"/><path d="M60 55h15v10H60V55z" fill="#fff"/><path d="M60 55h15v10H60V55z" stroke="#000" stroke-width="2"/><path d="M62 48h11v7H62v-7z" fill="#fff"/><path d="M62 48h11v7H62v-7z" stroke="#000" stroke-width="2"/><path d="M73 48H62c-1.105 0-2-.895-2-2s.895-2 2-2h11c1.105 0 2 .895 2 2s-.895 2-2 2z" fill="#fff"/><path d="M73 48H62c-1.105 0-2-.895-2-2s.895-2 2-2h11c1.105 0 2 .895 2 2s-.895 2-2 2z" stroke="#000" stroke-width="2"/><path d="M99 55h15v10H99V55z" fill="#fff"/><path d="M99 55h15v10H99V55z" stroke="#000" stroke-width="2"/><path d="M101 48h11v7h-11v-7z" fill="#fff"/><path d="M101 48h11v7h-11v-7z" stroke="#000" stroke-width="2"/><path d="M112 48h-11c-1.105 0-2-.895-2-2s.895-2 2-2h11c1.105 0 2 .895 2 2s-.895 2-2 2z" fill="#fff"/><path d="M112 48h-11c-1.105 0-2-.895-2-2s.895-2 2-2h11c1.105 0 2 .895 2 2s-.895 2-2 2z" stroke="#000" stroke-width="2"/><path d="M81 88H57.604c-2.096 0-3.9 1.48-4.31 3.534L50 108h31V88z" fill="#fff"/><path d="M81 88H57.604c-2.096 0-3.9 1.48-4.31 3.534L50 108h31V88z" stroke="#000" stroke-width="2"/><path d="M116.396 88H93v20h31l-3.293-16.466c-.41-2.055-2.215-3.534-4.31-3.534z" fill="#fff"/><path d="M116.396 88H93v20h31l-3.293-16.466c-.41-2.055-2.215-3.534-4.31-3.534z" stroke="#000" stroke-width="2"/><path d="M92 75c0 2.76-2.24 5-5 5s-5-2.24-5-5 2.24-5 5-5 5 2.24 5 5z" fill="#fff"/><path d="M92 75c0 2.76-2.24 5-5 5s-5-2.24-5-5 2.24-5 5-5 5 2.24 5 5z" stroke="#000" stroke-width="2"/></g></svg>