<?xml version="1.0" encoding="UTF-8" standalone="no"?>
<svg width="407px" height="67px" viewBox="0 0 407 67" version="1.1" xmlns="http://www.w3.org/2000/svg" xmlns:xlink="http://www.w3.org/1999/xlink" xmlns:sketch="http://www.bohemiancoding.com/sketch/ns">
    <!-- Generator: Sketch 3.3.3 (12081) - http://www.bohemiancoding.com/sketch -->
    <title>full-logo</title>
    <desc>Created with Sketch.</desc>
    <defs></defs>
    <g id="Preselected" stroke="none" stroke-width="1" fill="none" fill-rule="evenodd" sketch:type="MSPage">
        <g id="rebrand_1b-copy" sketch:type="MSArtboardGroup" transform="translate(-850.000000, -471.000000)" fill="#FFFFFF">
            <g id="full-logo" sketch:type="MSLayerGroup" transform="translate(850.000000, 470.000000)">
                <path d="M106.574189,33.6942739 C107.541962,32.3972134 108.026262,30.8214457 108.026262,28.9677954 C108.026262,27.4349057 107.758862,26.1559859 107.226546,25.1302115 C106.691746,24.1052616 105.972333,23.2897544 105.06665,22.6836899 C104.160968,22.07845 103.107098,21.6109145 101.903384,21.3511726 C100.699671,21.0914307 99.4280729,20.9273397 98.0877622,20.9273397 L88.2726144,20.9273397 L88.2726144,47.3138212 L94.0676578,47.3138212 L94.0676578,36.5943131 L96.5628379,36.5943131 L102.070613,47.3138212 L109.031288,47.3138212 L102.33139,36.194393 C104.193254,35.848895 105.606417,34.9913343 106.574189,33.6942739 L106.574189,33.6942739 Z M101.531674,30.5988098 C101.221225,30.994607 100.829646,31.2840337 100.359419,31.4703882 C99.8867092,31.6550936 99.3601881,31.6600411 98.7765445,31.6971471 C98.1929008,31.734253 97.6415438,31.6468478 97.1208178,31.6468478 L94.0676578,31.6468478 L94.0676578,25.874805 L97.4933563,25.874805 C98.0140823,25.874805 98.5472263,25.9201568 99.0927883,25.9935442 C99.6391781,26.0677561 100.123478,26.2145309 100.544861,26.4239736 C100.966243,26.6350655 101.313946,26.9393346 101.587141,27.3343073 C101.859508,27.7301045 101.996105,28.261957 101.996105,28.9290402 C101.996105,29.6472473 101.841295,30.2038371 101.531674,30.5988098 Z M117.247831,36.5943131 L128.837918,36.5943131 L128.837918,30.8222703 L117.247831,30.8222703 L117.247831,26.6993825 L128.837918,26.6993825 L128.837918,20.9273397 L111.452788,20.9273397 L111.452788,47.3138212 L129.665781,47.3138212 L129.665781,41.5417784 L117.247831,41.5417784 L117.247831,36.5943131 Z M147.348114,33.4163912 C146.442432,32.8729946 145.468865,32.4524601 144.426585,32.1556122 C143.384305,31.8587643 142.40991,31.5627409 141.505055,31.265893 C140.598545,30.9690451 139.8485,30.612003 139.253267,30.1906439 C138.657205,29.7709339 138.360002,29.165694 138.360002,28.3740995 C138.360002,27.8801776 138.483354,27.459643 138.731713,27.1133205 C138.980072,26.7686471 139.302939,26.4899398 139.699485,26.2796726 C140.096859,26.0702299 140.518242,25.9152093 140.965288,25.81626 C141.411506,25.7181353 141.846135,25.6686606 142.268345,25.6686606 C142.987758,25.6686606 143.75022,25.8104879 144.556559,26.0941426 C145.362898,26.3786219 146.002009,26.8172971 146.473891,27.4101684 L150.455913,23.0728905 C149.339954,22.0850466 148.086569,21.3800328 146.696586,20.9603228 C145.306603,20.5397883 143.867777,20.329521 142.379279,20.329521 C141.089468,20.329521 139.836083,20.5092789 138.619951,20.8671456 C137.404648,21.2258368 136.331737,21.7634614 135.401219,22.4791947 C134.4707,23.1974017 133.725623,24.0871209 133.167643,25.1491768 C132.609663,26.2120572 132.330673,27.448099 132.330673,28.8564774 C132.330673,30.3143305 132.633671,31.4885289 133.242151,32.3782481 C133.849803,33.2679673 134.613093,33.9845252 135.531193,34.5287463 C136.448466,35.0721429 137.441902,35.5050462 138.509018,35.8258068 C139.575306,36.1473921 140.567914,36.4689773 141.486014,36.789738 C142.404115,37.1104986 143.167405,37.5005238 143.775056,37.9573398 C144.382708,38.4158049 144.687362,39.0383609 144.687362,39.8291308 C144.687362,40.2999646 144.568977,40.7073059 144.333864,41.0536285 C144.097923,41.399951 143.788302,41.6827811 143.403346,41.9054171 C143.018389,42.128053 142.583761,42.2954423 142.100289,42.4059356 C141.616817,42.5172536 141.138312,42.5733249 140.667257,42.5733249 C139.699485,42.5733249 138.762344,42.3572856 137.857489,41.9235578 C136.951807,41.4923037 136.200935,40.8804672 135.605701,40.0896973 L131.474663,44.6116806 C132.739638,45.7735103 134.103957,46.6137549 135.568447,47.1332387 C137.032937,47.651898 138.619951,47.9116399 140.332801,47.9116399 C141.696291,47.9116399 142.994381,47.7384786 144.222102,47.3921561 C145.449824,47.0466581 146.529358,46.5156301 147.459876,45.7990722 C148.390394,45.0825144 149.128848,44.1804265 149.67441,43.0919842 C150.219972,42.0043664 150.493167,40.7320432 150.493167,39.2741901 C150.493167,37.7413005 150.195964,36.518452 149.599903,35.6031709 C149.004669,34.689539 148.253797,33.9597878 147.348114,33.4163912 Z M176.807631,24.0557869 C175.542656,22.8568512 174.04174,21.9366226 172.304883,21.2934522 C170.567198,20.6511062 168.668907,20.329521 166.610011,20.329521 C164.550287,20.329521 162.651996,20.6511062 160.915139,21.2934522 C159.177454,21.9366226 157.677365,22.8568512 156.411562,24.0557869 C155.145759,25.2547227 154.159774,26.7059792 153.451951,28.4120301 C152.745783,30.1164319 152.391458,32.0203815 152.391458,34.1205805 C152.391458,36.221604 152.745783,38.124729 153.451951,39.8291308 C154.159774,41.5351818 155.145759,42.9872628 156.411562,44.1861986 C157.677365,45.3851343 159.177454,46.3053629 160.915139,46.9477088 C162.651996,47.5900547 164.550287,47.9116399 166.610011,47.9116399 C168.668907,47.9116399 170.567198,47.5900547 172.304883,46.9477088 C174.04174,46.3053629 175.542656,45.3851343 176.807631,44.1861986 C178.074262,42.9872628 179.060248,41.5351818 179.768071,39.8291308 C180.474238,38.124729 180.828564,36.221604 180.828564,34.1205805 C180.828564,32.0203815 180.474238,30.1164319 179.768071,28.4120301 C179.060248,26.7059792 178.074262,25.2547227 176.807631,24.0557869 Z M174.221386,37.5128925 C173.83643,38.538667 173.284245,39.4283861 172.564832,40.18205 C171.845419,40.9357139 170.982785,41.5228131 169.977759,41.9433476 C168.972733,42.3638822 167.85015,42.5733249 166.610011,42.5733249 C165.369044,42.5733249 164.246461,42.3638822 163.241435,41.9433476 C162.236409,41.5228131 161.374603,40.9357139 160.654362,40.18205 C159.934949,39.4283861 159.382764,38.538667 158.998635,37.5128925 C158.613679,36.4879426 158.421614,35.3574468 158.421614,34.1205805 C158.421614,32.9101006 158.613679,31.7853768 158.998635,30.7472337 C159.382764,29.7090906 159.934949,28.8135994 160.654362,28.0591109 C161.374603,27.305447 162.236409,26.7191724 163.241435,26.2978133 C164.246461,25.8781033 165.369044,25.6686606 166.610011,25.6686606 C167.85015,25.6686606 168.972733,25.8781033 169.977759,26.2978133 C170.982785,26.7191724 171.845419,27.305447 172.564832,28.0591109 C173.284245,28.8135994 173.83643,29.7090906 174.221386,30.7472337 C174.605515,31.7853768 174.798407,32.9101006 174.798407,34.1205805 C174.798407,35.3574468 174.605515,36.4879426 174.221386,37.5128925 Z M200.034165,36.9010559 C200.034165,37.7165631 199.977871,38.4710516 199.717094,39.1628722 C199.456317,39.8546927 199.127655,40.4541606 198.655773,40.9604512 C198.184719,41.4675664 197.644124,41.862539 196.999218,42.1470183 C196.354313,42.4314975 195.655596,42.5733249 194.887339,42.5733249 C194.118254,42.5733249 193.408775,42.4314975 192.751451,42.1470183 C192.094128,41.862539 191.532009,41.4675664 191.060127,40.9604512 C190.589072,40.4541606 190.072486,39.8546927 189.812537,39.1628722 C189.55176,38.4710516 189.271942,37.7165631 189.271942,36.9010559 L189.271942,20.9273397 L183.476898,20.9273397 L183.476898,37.1236919 C183.476898,38.6804943 183.857716,40.1144346 184.32877,41.4238638 C184.800652,42.7341175 185.574704,43.8712099 186.505223,44.8351411 C187.435741,45.7990722 188.632003,46.5527361 190.021158,47.0961327 C191.411141,47.6395293 193.042031,47.9116399 194.878232,47.9116399 C196.688769,47.9116399 198.298964,47.6395293 199.688946,47.0961327 C201.078101,46.5527361 202.242905,45.7990722 203.174251,44.8351411 C204.104769,43.8712099 204.72815,42.7341175 205.199205,41.4238638 C205.670259,40.1144346 205.829209,38.6804943 205.829209,37.1236919 L205.829209,20.9273397 L200.034165,20.9273397 L200.034165,36.9010559 Z M229.027595,33.6942739 C229.994539,32.3972134 230.47884,30.8214457 230.47884,28.9677954 C230.47884,27.4349057 230.21144,26.1559859 229.679124,25.1302115 C229.144324,24.1052616 228.424911,23.2897544 227.519228,22.6836899 C226.613546,22.07845 225.559676,21.6109145 224.355962,21.3511726 C223.152249,21.0914307 221.881479,20.9273397 220.54034,20.9273397 L209.968525,20.9273397 L209.968525,47.3138212 L215.763569,47.3138212 L215.763569,36.5943131 L219.015416,36.5943131 L224.523191,47.3138212 L231.483866,47.3138212 L224.783968,36.194393 C226.645832,35.848895 228.059823,34.9913343 229.027595,33.6942739 Z M223.984252,30.5988098 C223.673803,30.994607 223.282224,31.2840337 222.811997,31.4703882 C222.339287,31.6550936 221.812766,31.6600411 221.22995,31.6971471 C220.646307,31.734253 220.094122,31.6468478 219.573396,31.6468478 L215.763569,31.6468478 L215.763569,25.874805 L219.945934,25.874805 C220.46666,25.874805 220.999804,25.9201568 221.545366,25.9935442 C222.091756,26.0677561 222.576056,26.2145309 222.997439,26.4239736 C223.418821,26.6350655 223.766524,26.9393346 224.039718,27.3343073 C224.312085,27.7301045 224.448683,28.261957 224.448683,28.9290402 C224.448683,29.6472473 224.293873,30.2038371 223.984252,30.5988098 Z M248.679415,41.8312051 C247.761315,42.3267762 246.706617,42.5733249 245.516149,42.5733249 C244.473869,42.5733249 243.499474,42.3638822 242.593792,41.9433476 C241.688109,41.5228131 240.899983,40.9357139 240.23107,40.18205 C239.5605,39.4283861 239.033151,38.538667 238.649023,37.5128925 C238.264066,36.4879426 238.072002,35.3574468 238.072002,34.1205805 C238.072002,32.9101006 238.264066,31.7853768 238.649023,30.7472337 C239.033151,29.7090906 239.566295,28.8135994 240.249283,28.0591109 C240.931442,27.305447 241.737781,26.7191724 242.668299,26.2978133 C243.598818,25.8781033 244.609639,25.6686606 245.701591,25.6686606 C246.793542,25.6686606 247.754692,25.853366 248.586694,26.2236013 C249.417041,26.5954858 250.118242,27.1265137 250.689467,27.8183343 L255.15579,24.1852456 C254.584564,23.4686877 253.939659,22.8634478 253.220245,22.3687013 C252.500832,21.8747793 251.750788,21.4781575 250.968457,21.1821342 C250.186954,20.8861108 249.392205,20.6692469 248.586694,20.5331917 C247.780355,20.3979609 247.004647,20.329521 246.260398,20.329521 C244.200674,20.329521 242.302384,20.6511062 240.565526,21.2934522 C238.827841,21.9366226 237.327753,22.8568512 236.06195,24.0557869 C234.796147,25.2547227 233.810162,26.7059792 233.102338,28.4120301 C232.396171,30.1164319 232.041845,32.0203815 232.041845,34.1205805 C232.041845,36.221604 232.396171,38.124729 233.102338,39.8291308 C233.810162,41.5351818 234.796147,42.9872628 236.06195,44.1861986 C237.327753,45.3851343 238.827841,46.3053629 240.565526,46.9477088 C242.302384,47.5900547 244.200674,47.9116399 246.260398,47.9116399 C248.070935,47.9116399 249.833457,47.54058 251.545478,46.8001094 C253.257499,46.0579896 254.672318,44.9093531 255.789105,43.3517261 L250.950244,39.7557434 C250.354183,40.6454626 249.597515,41.3372831 248.679415,41.8312051 Z M263.779642,36.5943131 L275.369729,36.5943131 L275.369729,30.8222703 L263.779642,30.8222703 L263.779642,26.6993825 L276.197592,26.6993825 L276.197592,20.9273397 L257.984599,20.9273397 L257.984599,47.3138212 L277.025456,47.3138212 L277.025456,41.5417784 L263.779642,41.5417784 L263.779642,36.5943131 Z M311.617725,20.9273397 L305.067671,44.015511 L304.993163,44.015511 L298.330519,20.9273397 L295.203679,20.9273397 L288.541863,44.015511 L288.467355,44.015511 L281.916472,20.9273397 L279.385694,20.9273397 L287.052537,47.3138212 L290.067615,47.3138212 L296.730259,24.2256499 L296.804767,24.2256499 L303.467411,47.3138212 L306.481661,47.3138212 L314.149331,20.9273397 L311.617725,20.9273397 Z M325.016694,20.9273397 L313.515188,47.3138212 L316.084048,47.3138212 L319.061045,39.8926233 L333.018821,39.8926233 L335.884883,47.3138212 L338.639185,47.3138212 L327.547472,20.9273397 L325.016694,20.9273397 Z M320.028817,38.2434682 L326.169907,23.8603621 L332.125556,38.2434682 L320.028817,38.2434682 Z M338.287343,23.4010724 L347.39384,23.4010724 L347.39384,47.3138212 L349.87743,47.3138212 L349.87743,23.4010724 L358.983926,23.4010724 L358.983926,20.9273397 L338.287343,20.9273397 L338.287343,23.4010724 Z M379.841115,43.4440788 C379.221046,43.9503694 378.569517,44.3709039 377.887358,44.7048578 C377.205198,45.0388118 376.503998,45.286185 375.784585,45.4461531 C375.065172,45.6069457 374.370594,45.6869297 373.700025,45.6869297 C371.988004,45.6869297 370.444039,45.3909064 369.066474,44.7972105 C367.689737,44.2043393 366.516655,43.3888321 365.54971,42.350689 C364.581938,41.3125458 363.836861,40.0896973 363.315307,38.6804943 C362.794581,37.2721158 362.533804,35.7515948 362.533804,34.1205805 C362.533804,32.4895661 362.794581,30.9690451 363.315307,29.5606666 C363.836861,28.1514636 364.581938,26.9286151 365.54971,25.890472 C366.516655,24.8523288 367.689737,24.0368216 369.066474,23.4431258 C370.444039,22.8510791 371.988004,22.5534066 373.700025,22.5534066 C375.039508,22.5534066 376.34836,22.8387105 377.627409,23.4060198 C378.903974,23.9758029 379.952877,24.8778907 380.771634,26.1131079 L382.781686,24.444163 C381.615226,22.9615725 380.256703,21.9052887 378.706115,21.2744869 C377.155527,20.6445096 375.487382,20.329521 373.700025,20.329521 C371.690801,20.329521 369.847977,20.6758436 368.173209,21.3676641 C366.498442,22.0603093 365.06541,23.0176438 363.874115,24.2404923 C362.683648,25.4641654 361.753129,26.9162464 361.08256,28.5967355 C360.412818,30.2772245 360.077534,32.1185062 360.077534,34.1205805 C360.077534,36.1218302 360.412818,37.970533 361.08256,39.6625661 C361.753129,41.3562484 362.683648,42.8141015 363.874115,44.0377746 C365.06541,45.2606231 366.498442,46.2130102 368.173209,46.8924621 C369.847977,47.5710894 371.690801,47.9116399 373.700025,47.9116399 C375.63557,47.9116399 377.434517,47.54058 379.097694,46.8001094 C380.759216,46.0579896 382.223706,44.8351411 383.488681,43.1290902 L381.479457,41.6093937 C381.008403,42.3267762 380.461185,42.9377882 379.841115,43.4440788 Z M404.51641,20.9273397 L404.51641,32.4714254 L389.61487,32.4714254 L389.61487,20.9273397 L387.13128,20.9273397 L387.13128,47.3138212 L389.61487,47.3138212 L389.61487,34.945158 L404.51641,34.945158 L404.51641,47.3138212 L407,47.3138212 L407,20.9273397 L404.51641,20.9273397 Z" id="Fill-1-Copy" sketch:type="MSShapeGroup"></path>
                <g id="path" sketch:type="MSShapeGroup">
                    <path d="M21.5481798,13.0769231 L0,34.5411141 L15.2115684,49.6923077 L36.7612903,28.2281167 L21.5481798,13.0769231" id="Fill-1"></path>
                    <path d="M39.8698424,24.8461538 L48.5774194,16.1740891 L33.6527383,1.30769231 L24.9451613,9.97975709 L39.8698424,24.8461538" id="Fill-2"></path>
                    <path d="M45.4083426,56.2307692 L66.9580645,34.7665782 L51.7464961,19.6153846 L30.1967742,41.0795756 L45.4083426,56.2307692" id="Fill-3"></path>
                    <path d="M27.0872666,44.4615385 L18.3806452,53.1336032 L33.3062818,68 L42.0129032,59.3279352 L27.0872666,44.4615385" id="Fill-4"></path>
                </g>
            </g>
        </g>
    </g>
</svg>