<?xml version="1.0" encoding="utf-8"?>
<!-- Generator: Adobe Illustrator 18.1.1, SVG Export Plug-In . SVG Version: 6.00 Build 0)  -->
<svg version="1.1" id="Capa_1" xmlns="http://www.w3.org/2000/svg" xmlns:xlink="http://www.w3.org/1999/xlink" x="0px" y="0px"
	 width="120px" height="148px" viewBox="0 0 120 148" enable-background="new 0 0 120 148" xml:space="preserve">
<g enable-background="new    ">
	<g>
		<defs>
			<rect id="SVGID_1_" width="120" height="148"/>
		</defs>
		<clipPath id="SVGID_2_">
			<use xlink:href="#SVGID_1_"  overflow="visible"/>
		</clipPath>
		<g clip-path="url(#SVGID_2_)">
			<defs>
				<rect id="SVGID_3_" x="-640" y="-131" width="1400" height="4653"/>
			</defs>
			<clipPath id="SVGID_4_">
				<use xlink:href="#SVGID_3_"  overflow="visible"/>
			</clipPath>
			<g clip-path="url(#SVGID_4_)">
				<defs>
					<path id="SVGID_5_" d="M82.7,34.7l-7.2,7.2l8.3,8.3l7.2-7.2L82.7,34.7z M73.6,25.6L48.9,1l-7.2,7.2l24.6,24.6L73.6,25.6z
						 M39.8,25.6l-8.4-8.4l-7.2,7.2l8.4,8.4L39.8,25.6z M48.9,34.7l-7.2,7.2l24.6,24.6l7.2-7.2L48.9,34.7z M49.5,17.9L24.8,42.5
						l7.2,7.2L56.7,25L49.5,17.9z M65.8,15.9l8.7-8.7L67.3,0l-8.7,8.7L65.8,15.9z M65.8,49.7L90.4,25l-7.2-7.2L58.6,42.5L65.8,49.7z
						 M49.5,51.6L41,60.1l7.2,7.2l8.5-8.5L49.5,51.6z"/>
				</defs>
				<clipPath id="SVGID_6_">
					<use xlink:href="#SVGID_5_"  overflow="visible"/>
				</clipPath>
				<g clip-path="url(#SVGID_6_)">
					<defs>
						<rect id="SVGID_7_" width="120" height="148"/>
					</defs>
					<clipPath id="SVGID_8_">
						<use xlink:href="#SVGID_7_"  overflow="visible"/>
					</clipPath>
					<rect x="19.2" y="-5" clip-path="url(#SVGID_8_)" fill="#fff" width="76.8" height="77.3"/>
				</g>
			</g>
		</g>
		<g clip-path="url(#SVGID_2_)">
			<defs>
				<rect id="SVGID_9_" x="-640" y="-131" width="1400" height="4653"/>
			</defs>
			<clipPath id="SVGID_10_">
				<use xlink:href="#SVGID_9_"  overflow="visible"/>
			</clipPath>
			<g clip-path="url(#SVGID_10_)">
				<defs>
					<path id="SVGID_11_" d="M83,132.6h3.2v5.4h6.1v-5.4h3.2V147h-3.2v-6.2h-6.1v6.2H83V132.6z M78.5,136.4
						c-0.3-0.4-0.7-0.7-1.1-0.9s-1-0.3-1.6-0.3c-0.6,0-1.1,0.1-1.7,0.3s-0.9,0.6-1.3,1c-0.4,0.4-0.7,0.9-0.9,1.5
						c-0.2,0.6-0.3,1.2-0.3,1.8c0,0.7,0.1,1.3,0.3,1.9c0.2,0.6,0.5,1,0.9,1.5c0.4,0.4,0.8,0.7,1.3,1s1,0.3,1.6,0.3
						c0.6,0,1.2-0.1,1.7-0.4c0.5-0.3,0.9-0.6,1.2-1.1l2.6,2c-0.6,0.9-1.4,1.5-2.3,1.9c-0.9,0.4-1.9,0.6-2.9,0.6
						c-1.1,0-2.2-0.2-3.1-0.5c-0.9-0.4-1.8-0.9-2.5-1.5c-0.7-0.7-1.2-1.5-1.6-2.4c-0.4-0.9-0.6-2-0.6-3.1s0.2-2.2,0.6-3.1
						c0.4-0.9,0.9-1.7,1.6-2.4c0.7-0.7,1.5-1.2,2.5-1.5c0.9-0.4,2-0.5,3.1-0.5c0.4,0,0.8,0,1.3,0.1c0.4,0.1,0.9,0.2,1.3,0.4
						c0.4,0.2,0.8,0.4,1.2,0.6c0.4,0.3,0.7,0.6,1.1,1L78.5,136.4z M60.2,135.4h-4.1v-2.8h11.4v2.8h-4.1V147h-3.2V135.4z M50.2,136.8
						l-1.7,4.5H52L50.2,136.8z M49,132.6h2.6l6.3,14.4h-3.6l-1.2-3h-5.6l-1.2,3h-3.5L49,132.6z M23,132.6h3.4l2.3,9.2h0l3-9.2h2.9
						l3,9.5h0l2.4-9.5h3.2L39.2,147h-2.8l-3.2-9.9h0L30,147h-2.7L23,132.6z M117.4,114.1c-0.3-0.3-0.6-0.6-1-0.7
						c-0.4-0.2-0.9-0.2-1.2-0.2c-0.2,0-0.5,0-0.7,0.1s-0.5,0.1-0.7,0.3c-0.2,0.1-0.4,0.3-0.5,0.5s-0.2,0.4-0.2,0.7
						c0,0.4,0.2,0.8,0.5,1c0.3,0.2,0.7,0.4,1.2,0.6c0.5,0.2,1,0.3,1.6,0.5c0.6,0.2,1.1,0.4,1.6,0.7c0.5,0.3,0.9,0.7,1.2,1.2
						c0.3,0.5,0.5,1.2,0.5,2c0,0.8-0.1,1.5-0.4,2.1c-0.3,0.6-0.7,1.1-1.2,1.5c-0.5,0.4-1.1,0.7-1.8,0.9s-1.4,0.3-2.1,0.3
						c-0.9,0-1.8-0.1-2.6-0.4c-0.8-0.3-1.5-0.7-2.2-1.4l2.3-2.5c0.3,0.4,0.7,0.8,1.2,1c0.5,0.2,1,0.4,1.5,0.4c0.3,0,0.5,0,0.8-0.1
						c0.3-0.1,0.5-0.2,0.7-0.3c0.2-0.1,0.4-0.3,0.5-0.5c0.1-0.2,0.2-0.4,0.2-0.7c0-0.4-0.2-0.8-0.5-1c-0.3-0.3-0.7-0.5-1.2-0.6
						c-0.5-0.2-1-0.4-1.6-0.5c-0.6-0.2-1.1-0.4-1.6-0.7c-0.5-0.3-0.9-0.7-1.2-1.2c-0.3-0.5-0.5-1.1-0.5-1.9c0-0.8,0.2-1.4,0.5-2
						c0.3-0.6,0.7-1.1,1.2-1.5c0.5-0.4,1.1-0.7,1.8-0.9c0.7-0.2,1.3-0.3,2-0.3c0.8,0,1.6,0.1,2.4,0.3c0.8,0.2,1.4,0.6,2,1.2
						L117.4,114.1z M97.6,110.6h9.8v2.9h-6.6v2.7h6.2v2.9h-6.2v2.9h7v2.9H97.6V110.6z M93,114.4c-0.3-0.4-0.7-0.7-1.1-0.9
						c-0.5-0.2-1-0.3-1.6-0.3c-0.6,0-1.1,0.1-1.7,0.3c-0.5,0.2-0.9,0.6-1.3,1c-0.4,0.4-0.7,0.9-0.9,1.5c-0.2,0.6-0.3,1.2-0.3,1.8
						c0,0.7,0.1,1.3,0.3,1.9c0.2,0.6,0.5,1,0.9,1.5s0.8,0.7,1.3,1c0.5,0.2,1,0.3,1.6,0.3c0.6,0,1.2-0.1,1.7-0.4
						c0.5-0.3,0.9-0.6,1.2-1.1l2.6,2c-0.6,0.9-1.4,1.5-2.3,1.9c-0.9,0.4-1.9,0.6-2.9,0.6c-1.1,0-2.2-0.2-3.1-0.5
						c-0.9-0.4-1.8-0.9-2.5-1.5c-0.7-0.7-1.2-1.5-1.6-2.4c-0.4-0.9-0.6-2-0.6-3.1s0.2-2.2,0.6-3.1c0.4-0.9,0.9-1.7,1.6-2.4
						c0.7-0.7,1.5-1.2,2.5-1.5c0.9-0.4,2-0.5,3.1-0.5c0.4,0,0.8,0,1.3,0.1c0.4,0.1,0.9,0.2,1.3,0.4c0.4,0.2,0.8,0.4,1.2,0.6
						c0.4,0.3,0.7,0.6,1.1,1L93,114.4z M73.6,116.6h1.9c0.3,0,0.6,0,0.9,0c0.3,0,0.6-0.1,0.9-0.2c0.3-0.1,0.5-0.3,0.6-0.5
						c0.2-0.2,0.3-0.5,0.3-0.9c0-0.4-0.1-0.7-0.2-0.9c-0.1-0.2-0.3-0.4-0.6-0.5c-0.2-0.1-0.5-0.2-0.8-0.2c-0.3,0-0.6-0.1-0.9-0.1
						h-2.1V116.6z M70.5,110.6H76c0.7,0,1.4,0.1,2.1,0.2c0.7,0.1,1.2,0.4,1.7,0.7c0.5,0.3,0.9,0.8,1.2,1.3c0.3,0.6,0.4,1.3,0.4,2.1
						c0,1-0.3,1.9-0.8,2.6c-0.5,0.7-1.3,1.2-2.3,1.3L82,125h-3.8l-3-5.7h-1.6v5.7h-3.2V110.6z M67.5,119.5c0,0.9-0.1,1.6-0.4,2.4
						c-0.3,0.7-0.6,1.3-1.1,1.9c-0.5,0.5-1.1,0.9-1.9,1.2c-0.8,0.3-1.6,0.4-2.6,0.4c-1,0-1.9-0.1-2.6-0.4s-1.4-0.7-1.9-1.2
						c-0.5-0.5-0.9-1.1-1.1-1.9c-0.3-0.7-0.4-1.5-0.4-2.4v-8.8h3.2v8.7c0,0.4,0.1,0.9,0.2,1.2c0.1,0.4,0.3,0.7,0.6,1
						c0.3,0.3,0.6,0.5,0.9,0.6c0.4,0.2,0.7,0.2,1.2,0.2c0.4,0,0.8-0.1,1.2-0.2c0.4-0.2,0.7-0.4,0.9-0.6c0.3-0.3,0.5-0.6,0.6-1
						c0.1-0.4,0.2-0.8,0.2-1.2v-8.7h3.2V119.5z M41.1,117.8c0,0.7,0.1,1.3,0.3,1.9c0.2,0.6,0.5,1,0.9,1.5c0.4,0.4,0.9,0.7,1.4,1
						c0.5,0.2,1.2,0.3,1.8,0.3c0.7,0,1.3-0.1,1.8-0.3c0.5-0.2,1-0.6,1.4-1c0.4-0.4,0.7-0.9,0.9-1.5s0.3-1.2,0.3-1.9
						c0-0.7-0.1-1.3-0.3-1.8s-0.5-1.1-0.9-1.5c-0.4-0.4-0.9-0.7-1.4-1c-0.5-0.2-1.2-0.3-1.8-0.3c-0.7,0-1.3,0.1-1.8,0.3
						c-0.5,0.2-1,0.6-1.4,1c-0.4,0.4-0.7,0.9-0.9,1.5C41.2,116.5,41.1,117.2,41.1,117.8z M37.8,117.8c0-1.1,0.2-2.2,0.6-3.1
						c0.4-0.9,0.9-1.7,1.6-2.4c0.7-0.7,1.5-1.2,2.5-1.5c0.9-0.4,2-0.5,3.1-0.5c1.1,0,2.2,0.2,3.1,0.5c0.9,0.4,1.8,0.9,2.5,1.5
						c0.7,0.7,1.2,1.5,1.6,2.4c0.4,0.9,0.6,2,0.6,3.1s-0.2,2.2-0.6,3.1c-0.4,0.9-0.9,1.7-1.6,2.4c-0.7,0.7-1.5,1.2-2.5,1.5
						c-0.9,0.4-2,0.5-3.1,0.5c-1.1,0-2.2-0.2-3.1-0.5c-0.9-0.4-1.8-0.9-2.5-1.5c-0.7-0.7-1.2-1.5-1.6-2.4
						C38,120,37.8,119,37.8,117.8z M34,114.1c-0.3-0.3-0.6-0.6-1-0.7c-0.4-0.2-0.9-0.2-1.2-0.2c-0.2,0-0.5,0-0.7,0.1
						c-0.2,0.1-0.5,0.1-0.7,0.3c-0.2,0.1-0.4,0.3-0.5,0.5c-0.1,0.2-0.2,0.4-0.2,0.7c0,0.4,0.2,0.8,0.5,1c0.3,0.2,0.7,0.4,1.2,0.6
						s1,0.3,1.6,0.5c0.6,0.2,1.1,0.4,1.6,0.7s0.9,0.7,1.2,1.2c0.3,0.5,0.5,1.2,0.5,2c0,0.8-0.1,1.5-0.4,2.1
						c-0.3,0.6-0.7,1.1-1.2,1.5c-0.5,0.4-1.1,0.7-1.8,0.9c-0.7,0.2-1.4,0.3-2.1,0.3c-0.9,0-1.8-0.1-2.6-0.4
						c-0.8-0.3-1.5-0.7-2.2-1.4l2.3-2.5c0.3,0.4,0.7,0.8,1.2,1c0.5,0.2,1,0.4,1.5,0.4c0.3,0,0.5,0,0.8-0.1c0.3-0.1,0.5-0.2,0.7-0.3
						c0.2-0.1,0.4-0.3,0.5-0.5c0.1-0.2,0.2-0.4,0.2-0.7c0-0.4-0.2-0.8-0.5-1c-0.3-0.3-0.7-0.5-1.2-0.6c-0.5-0.2-1-0.4-1.6-0.5
						c-0.6-0.2-1.1-0.4-1.6-0.7c-0.5-0.3-0.9-0.7-1.2-1.2c-0.3-0.5-0.5-1.1-0.5-1.9c0-0.8,0.2-1.4,0.5-2c0.3-0.6,0.7-1.1,1.2-1.5
						c0.5-0.4,1.1-0.7,1.8-0.9c0.7-0.2,1.3-0.3,2-0.3c0.8,0,1.6,0.1,2.4,0.3c0.8,0.2,1.4,0.6,2,1.2L34,114.1z M14.2,110.6H24v2.9
						h-6.6v2.7h6.2v2.9h-6.2v2.9h7v2.9H14.2V110.6z M4.1,116.6H6c0.3,0,0.6,0,0.9,0c0.3,0,0.6-0.1,0.9-0.2c0.3-0.1,0.5-0.3,0.6-0.5
						c0.2-0.2,0.3-0.5,0.3-0.9c0-0.4-0.1-0.7-0.2-0.9s-0.3-0.4-0.6-0.5c-0.2-0.1-0.5-0.2-0.8-0.2c-0.3,0-0.6-0.1-0.9-0.1H4.1V116.6z
						 M1,110.6h5.6c0.7,0,1.4,0.1,2.1,0.2c0.7,0.1,1.2,0.4,1.7,0.7c0.5,0.3,0.9,0.8,1.2,1.3c0.3,0.6,0.4,1.3,0.4,2.1
						c0,1-0.3,1.9-0.8,2.6c-0.5,0.7-1.3,1.2-2.3,1.3l3.7,6.1H8.7l-3-5.7H4.1v5.7H1V110.6z M87.5,100.1h1.6c0.7,0,1.4-0.1,2-0.2
						c0.6-0.1,1.2-0.4,1.6-0.7c0.5-0.3,0.8-0.8,1.1-1.4c0.3-0.6,0.4-1.2,0.4-2.1c0-0.7-0.1-1.3-0.4-1.8c-0.3-0.5-0.6-1-1.1-1.3
						c-0.4-0.3-1-0.6-1.6-0.8c-0.6-0.2-1.2-0.3-1.9-0.3h-1.9V100.1z M84.4,88.6h4.7c1.1,0,2.2,0.1,3.3,0.4c1,0.3,1.9,0.7,2.7,1.2
						c0.8,0.6,1.4,1.3,1.8,2.2c0.5,0.9,0.7,2,0.7,3.3c0,1.2-0.2,2.2-0.7,3.1s-1,1.6-1.8,2.2c-0.7,0.6-1.6,1.1-2.6,1.4
						c-1,0.3-2,0.5-3.1,0.5h-5.2V88.6z M73.6,88.6h3.2v11.4h5.9v2.9h-9V88.6z M63.5,94.6h1.9c0.3,0,0.6,0,0.9,0
						c0.3,0,0.6-0.1,0.9-0.2c0.3-0.1,0.5-0.3,0.6-0.5c0.2-0.2,0.3-0.5,0.3-0.9c0-0.4-0.1-0.7-0.2-0.9s-0.3-0.4-0.6-0.5
						c-0.2-0.1-0.5-0.2-0.8-0.2c-0.3,0-0.6-0.1-0.9-0.1h-2.1V94.6z M60.3,88.6h5.6c0.7,0,1.4,0.1,2.1,0.2c0.7,0.1,1.2,0.4,1.7,0.7
						c0.5,0.3,0.9,0.8,1.2,1.3c0.3,0.6,0.4,1.3,0.4,2.1c0,1-0.3,1.9-0.8,2.6c-0.5,0.7-1.3,1.2-2.3,1.3l3.7,6.1h-3.8l-3-5.7h-1.6v5.7
						h-3.2V88.6z M46,95.8c0,0.7,0.1,1.3,0.3,1.9s0.5,1,0.9,1.5c0.4,0.4,0.9,0.7,1.4,1c0.5,0.2,1.2,0.3,1.8,0.3
						c0.7,0,1.3-0.1,1.8-0.3c0.5-0.2,1-0.6,1.4-1c0.4-0.4,0.7-0.9,0.9-1.5s0.3-1.2,0.3-1.9c0-0.7-0.1-1.3-0.3-1.8s-0.5-1.1-0.9-1.5
						c-0.4-0.4-0.9-0.7-1.4-1c-0.5-0.2-1.2-0.3-1.8-0.3c-0.7,0-1.3,0.1-1.8,0.3c-0.5,0.2-1,0.6-1.4,1c-0.4,0.4-0.7,0.9-0.9,1.5
						S46,95.2,46,95.8z M42.7,95.8c0-1.1,0.2-2.2,0.6-3.1c0.4-0.9,0.9-1.7,1.6-2.4c0.7-0.7,1.5-1.2,2.5-1.5c0.9-0.4,2-0.5,3.1-0.5
						c1.1,0,2.2,0.2,3.1,0.5c0.9,0.4,1.8,0.9,2.5,1.5c0.7,0.7,1.2,1.5,1.6,2.4c0.4,0.9,0.6,2,0.6,3.1S58,98,57.6,98.9
						c-0.4,0.9-0.9,1.7-1.6,2.4c-0.7,0.7-1.5,1.2-2.5,1.5c-0.9,0.4-2,0.5-3.1,0.5c-1.1,0-2.2-0.2-3.1-0.5c-0.9-0.4-1.8-0.9-2.5-1.5
						c-0.7-0.7-1.2-1.5-1.6-2.4C42.9,98,42.7,97,42.7,95.8z M21.6,88.6h3.4l2.3,9.2h0l3-9.2h2.9l3,9.5h0l2.4-9.5H42L37.8,103H35
						l-3.2-9.9h0l-3.2,9.9h-2.7L21.6,88.6z"/>
				</defs>
				<clipPath id="SVGID_12_">
					<use xlink:href="#SVGID_11_"  overflow="visible"/>
				</clipPath>
				<g clip-path="url(#SVGID_12_)">
					<defs>
						<rect id="SVGID_13_" width="120" height="148"/>
					</defs>
					<clipPath id="SVGID_14_">
						<use xlink:href="#SVGID_13_"  overflow="visible"/>
					</clipPath>
					<rect x="-4" y="83.3" clip-path="url(#SVGID_14_)" fill="#FFFFFF" width="128.6" height="69.1"/>
				</g>
			</g>
		</g>
	</g>
</g>
</svg>
