<?xml version="1.0" encoding="UTF-8" standalone="no"?>
<svg width="333px" height="52px" viewBox="0 0 333 52" version="1.1" xmlns="http://www.w3.org/2000/svg" xmlns:xlink="http://www.w3.org/1999/xlink">
    <g stroke="none" stroke-width="1" fill="none" fill-rule="evenodd">
        <g transform="translate(-189.000000, -25.000000)">
            <g id="logo-horizontal" transform="translate(189.000000, 25.000000)">
                <path d="M19.2988756,39.8701432 L12.7936827,46.4500967 L18.2801438,52 L24.7848804,45.4200465 L19.2988756,39.8701432 Z M31.7545018,38.3702941 L50.5688753,19.3379009 L45.0828704,13.7879977 L26.2680407,32.8203908 L31.7545018,38.3702941 Z M31.7545018,12.2881485 L38.4152645,5.54990326 L32.9288034,0 L26.2680407,6.73824527 L31.7545018,12.2881485 Z M19.2988756,13.7879977 L0.484045836,32.8203908 L5.97050694,38.3702941 L24.7848804,19.3379009 L19.2988756,13.7879977 Z M18.8622763,26.8288397 L13.3758152,32.378743 L32.1906449,51.4111362 L37.677106,45.8612329 L18.8622763,26.8288397 Z M11.8931111,19.7790873 L5.4864611,13.2983546 L0,18.8482579 L6.40665003,25.3289906 L11.8931111,19.7790873 Z M37.677106,19.7790873 L18.8622763,0.74669412 L13.3758152,6.29659738 L32.1906449,25.3289906 L37.677106,19.7790873 Z M44.6462711,26.8288397 L39.15981,32.378743 L45.5135389,38.8059426 L51,33.2560393 L44.6462711,26.8288397 Z" id="Fill-1" fill="#C61F5D"></path>
                <path d="M67.962,18.548 L71.192,18.548 L73.339,27.174 L73.377,27.174 L76.189,18.548 L78.944,18.548 L81.737,27.402 L81.775,27.402 L84.036,18.548 L87.038,18.548 L83.105,32 L80.464,32 L77.5,22.69 L77.462,22.69 L74.498,32 L71.952,32 L67.962,18.548 Z M87.646,25.274 C87.646,24.197328 87.8264982,23.2220044 88.1875,22.348 C88.5485018,21.4739956 89.0519968,20.7298364 89.698,20.1155 C90.3440032,19.5011636 91.1103289,19.029335 91.997,18.7 C92.8836711,18.370665 93.8526614,18.206 94.904,18.206 C95.9553386,18.206 96.9243289,18.370665 97.811,18.7 C98.6976711,19.029335 99.4639968,19.5011636 100.11,20.1155 C100.756003,20.7298364 101.259498,21.4739956 101.6205,22.348 C101.981502,23.2220044 102.162,24.197328 102.162,25.274 C102.162,26.3506721 101.981502,27.3259956 101.6205,28.2 C101.259498,29.0740044 100.756003,29.8181636 100.11,30.4325 C99.4639968,31.0468364 98.6976711,31.518665 97.811,31.848 C96.9243289,32.177335 95.9553386,32.342 94.904,32.342 C93.8526614,32.342 92.8836711,32.177335 91.997,31.848 C91.1103289,31.518665 90.3440032,31.0468364 89.698,30.4325 C89.0519968,29.8181636 88.5485018,29.0740044 88.1875,28.2 C87.8264982,27.3259956 87.646,26.3506721 87.646,25.274 L87.646,25.274 Z M90.724,25.274 C90.724,25.9073365 90.8221657,26.4868307 91.0185,27.0125 C91.2148343,27.5381693 91.4966648,27.9941647 91.864,28.3805 C92.2313352,28.7668353 92.6714974,29.0676656 93.1845,29.283 C93.6975026,29.4983344 94.2706635,29.606 94.904,29.606 C95.5373365,29.606 96.1104974,29.4983344 96.6235,29.283 C97.1365026,29.0676656 97.5766648,28.7668353 97.944,28.3805 C98.3113352,27.9941647 98.5931657,27.5381693 98.7895,27.0125 C98.9858343,26.4868307 99.084,25.9073365 99.084,25.274 C99.084,24.6533302 98.9858343,24.0770027 98.7895,23.545 C98.5931657,23.0129973 98.3113352,22.5538353 97.944,22.1675 C97.5766648,21.7811647 97.1365026,21.4803344 96.6235,21.265 C96.1104974,21.0496656 95.5373365,20.942 94.904,20.942 C94.2706635,20.942 93.6975026,21.0496656 93.1845,21.265 C92.6714974,21.4803344 92.2313352,21.7811647 91.864,22.1675 C91.4966648,22.5538353 91.2148343,23.0129973 91.0185,23.545 C90.8221657,24.0770027 90.724,24.6533302 90.724,25.274 L90.724,25.274 Z M104.176,18.548 L109.382,18.548 C110.066003,18.548 110.715164,18.6144993 111.3295,18.7475 C111.943836,18.8805007 112.482164,19.1021651 112.9445,19.4125 C113.406836,19.7228349 113.774165,20.1408307 114.0465,20.6665 C114.318835,21.1921693 114.455,21.8476627 114.455,22.633 C114.455,23.5830048 114.208002,24.3904967 113.714,25.0555 C113.219998,25.7205033 112.498005,26.1416658 111.548,26.319 L114.968,32 L111.415,32 L108.603,26.623 L107.14,26.623 L107.14,32 L104.176,32 L104.176,18.548 Z M107.14,24.115 L108.888,24.115 C109.154001,24.115 109.435832,24.1055001 109.7335,24.0865 C110.031168,24.0674999 110.300332,24.0105005 110.541,23.9155 C110.781668,23.8204995 110.981166,23.6716677 111.1395,23.469 C111.297834,23.2663323 111.377,22.9813352 111.377,22.614 C111.377,22.2719983 111.307334,21.9996677 111.168,21.797 C111.028666,21.5943323 110.851334,21.4391672 110.636,21.3315 C110.420666,21.2238328 110.173668,21.1510002 109.895,21.113 C109.616332,21.0749998 109.344001,21.056 109.078,21.056 L107.14,21.056 L107.14,24.115 Z M116.602,18.548 L119.566,18.548 L119.566,29.264 L125.057,29.264 L125.057,32 L116.602,32 L116.602,18.548 Z M126.691,18.548 L131.137,18.548 C132.213672,18.548 133.236495,18.6683321 134.2055,18.909 C135.174505,19.1496679 136.019996,19.539164 136.742,20.0775 C137.464004,20.615836 138.037165,21.3156624 138.4615,22.177 C138.885835,23.0383376 139.098,24.0833272 139.098,25.312 C139.098,26.4013388 138.892169,27.3608292 138.4805,28.1905 C138.068831,29.0201708 137.51467,29.7168305 136.818,30.2805 C136.12133,30.8441695 135.317005,31.2716652 134.405,31.563 C133.492995,31.8543348 132.536672,32 131.536,32 L126.691,32 L126.691,18.548 Z M129.655,29.264 L131.194,29.264 C131.878003,29.264 132.514497,29.194334 133.1035,29.055 C133.692503,28.915666 134.202331,28.6845016 134.633,28.3615 C135.063669,28.0384984 135.402499,27.6141693 135.6495,27.0885 C135.896501,26.5628307 136.02,25.9200038 136.02,25.16 C136.02,24.50133 135.896501,23.9281691 135.6495,23.4405 C135.402499,22.9528309 135.070002,22.5506683 134.652,22.234 C134.233998,21.9173318 133.743169,21.6798341 133.1795,21.5215 C132.615831,21.3631659 132.02367,21.284 131.403,21.284 L129.655,21.284 L129.655,29.264 Z M146.736,18.548 L151.942,18.548 C152.626003,18.548 153.275164,18.6144993 153.8895,18.7475 C154.503836,18.8805007 155.042164,19.1021651 155.5045,19.4125 C155.966836,19.7228349 156.334165,20.1408307 156.6065,20.6665 C156.878835,21.1921693 157.015,21.8476627 157.015,22.633 C157.015,23.5830048 156.768002,24.3904967 156.274,25.0555 C155.779998,25.7205033 155.058005,26.1416658 154.108,26.319 L157.528,32 L153.975,32 L151.163,26.623 L149.7,26.623 L149.7,32 L146.736,32 L146.736,18.548 Z M149.7,24.115 L151.448,24.115 C151.714001,24.115 151.995832,24.1055001 152.2935,24.0865 C152.591168,24.0674999 152.860332,24.0105005 153.101,23.9155 C153.341668,23.8204995 153.541166,23.6716677 153.6995,23.469 C153.857834,23.2663323 153.937,22.9813352 153.937,22.614 C153.937,22.2719983 153.867334,21.9996677 153.728,21.797 C153.588666,21.5943323 153.411334,21.4391672 153.196,21.3315 C152.980666,21.2238328 152.733668,21.1510002 152.455,21.113 C152.176332,21.0749998 151.904001,21.056 151.638,21.056 L149.7,21.056 L149.7,24.115 Z M159.162,18.548 L168.301,18.548 L168.301,21.284 L162.126,21.284 L162.126,23.792 L167.959,23.792 L167.959,26.528 L162.126,26.528 L162.126,29.264 L168.643,29.264 L168.643,32 L159.162,32 L159.162,18.548 Z M177.668,21.835 C177.427332,21.5309985 177.101169,21.3061674 176.6895,21.1605 C176.277831,21.0148326 175.888335,20.942 175.521,20.942 C175.305666,20.942 175.084001,20.9673331 174.856,21.018 C174.627999,21.0686669 174.412668,21.1478328 174.21,21.2555 C174.007332,21.3631672 173.842667,21.5056658 173.716,21.683 C173.589333,21.8603342 173.526,22.0756654 173.526,22.329 C173.526,22.7343354 173.677998,23.0446656 173.982,23.26 C174.286002,23.4753344 174.669164,23.6589992 175.1315,23.811 C175.593836,23.9630008 176.090997,24.1149992 176.623,24.267 C177.155003,24.4190008 177.652164,24.6343319 178.1145,24.913 C178.576836,25.1916681 178.959998,25.565331 179.264,26.034 C179.568002,26.502669 179.72,27.1296627 179.72,27.915 C179.72,28.6623371 179.580668,29.3146639 179.302,29.872 C179.023332,30.4293361 178.646502,30.8916648 178.1715,31.259 C177.696498,31.6263352 177.145503,31.8986658 176.5185,32.076 C175.891497,32.2533342 175.22967,32.342 174.533,32.342 C173.658996,32.342 172.848337,32.2090013 172.101,31.943 C171.353663,31.6769987 170.657003,31.2463363 170.011,30.651 L172.12,28.333 C172.424002,28.7383354 172.807164,29.0518322 173.2695,29.2735 C173.731836,29.4951678 174.209998,29.606 174.704,29.606 C174.944668,29.606 175.188499,29.5775003 175.4355,29.5205 C175.682501,29.4634997 175.904166,29.3780006 176.1005,29.264 C176.296834,29.1499994 176.455166,29.0043342 176.5755,28.827 C176.695834,28.6496658 176.756,28.4406679 176.756,28.2 C176.756,27.7946646 176.600835,27.4748345 176.2905,27.2405 C175.980165,27.0061655 175.590669,26.8066675 175.122,26.642 C174.653331,26.4773325 174.146669,26.3126675 173.602,26.148 C173.057331,25.9833325 172.550669,25.7616681 172.082,25.483 C171.613331,25.2043319 171.223835,24.8370023 170.9135,24.381 C170.603165,23.9249977 170.448,23.3233371 170.448,22.576 C170.448,21.8539964 170.590499,21.2206694 170.8755,20.676 C171.160501,20.1313306 171.540498,19.6753352 172.0155,19.308 C172.490502,18.9406648 173.03833,18.6651676 173.659,18.4815 C174.27967,18.2978324 174.91933,18.206 175.578,18.206 C176.338004,18.206 177.072663,18.3136656 177.782,18.529 C178.491337,18.7443344 179.130997,19.1053308 179.701,19.612 L177.668,21.835 Z M181.202,25.274 C181.202,24.197328 181.382498,23.2220044 181.7435,22.348 C182.104502,21.4739956 182.607997,20.7298364 183.254,20.1155 C183.900003,19.5011636 184.666329,19.029335 185.553,18.7 C186.439671,18.370665 187.408661,18.206 188.46,18.206 C189.511339,18.206 190.480329,18.370665 191.367,18.7 C192.253671,19.029335 193.019997,19.5011636 193.666,20.1155 C194.312003,20.7298364 194.815498,21.4739956 195.1765,22.348 C195.537502,23.2220044 195.718,24.197328 195.718,25.274 C195.718,26.3506721 195.537502,27.3259956 195.1765,28.2 C194.815498,29.0740044 194.312003,29.8181636 193.666,30.4325 C193.019997,31.0468364 192.253671,31.518665 191.367,31.848 C190.480329,32.177335 189.511339,32.342 188.46,32.342 C187.408661,32.342 186.439671,32.177335 185.553,31.848 C184.666329,31.518665 183.900003,31.0468364 183.254,30.4325 C182.607997,29.8181636 182.104502,29.0740044 181.7435,28.2 C181.382498,27.3259956 181.202,26.3506721 181.202,25.274 L181.202,25.274 Z M184.28,25.274 C184.28,25.9073365 184.378166,26.4868307 184.5745,27.0125 C184.770834,27.5381693 185.052665,27.9941647 185.42,28.3805 C185.787335,28.7668353 186.227497,29.0676656 186.7405,29.283 C187.253503,29.4983344 187.826663,29.606 188.46,29.606 C189.093336,29.606 189.666497,29.4983344 190.1795,29.283 C190.692503,29.0676656 191.132665,28.7668353 191.5,28.3805 C191.867335,27.9941647 192.149166,27.5381693 192.3455,27.0125 C192.541834,26.4868307 192.64,25.9073365 192.64,25.274 C192.64,24.6533302 192.541834,24.0770027 192.3455,23.545 C192.149166,23.0129973 191.867335,22.5538353 191.5,22.1675 C191.132665,21.7811647 190.692503,21.4803344 190.1795,21.265 C189.666497,21.0496656 189.093336,20.942 188.46,20.942 C187.826663,20.942 187.253503,21.0496656 186.7405,21.265 C186.227497,21.4803344 185.787335,21.7811647 185.42,22.1675 C185.052665,22.5538353 184.770834,23.0129973 184.5745,23.545 C184.378166,24.0770027 184.28,24.6533302 184.28,25.274 L184.28,25.274 Z M209.075,26.813 C209.075,27.611004 208.954668,28.3456633 208.714,29.017 C208.473332,29.6883367 208.115502,30.2709975 207.6405,30.765 C207.165498,31.2590025 206.573337,31.6453319 205.864,31.924 C205.154663,32.2026681 204.337671,32.342 203.413,32.342 C202.475662,32.342 201.652337,32.2026681 200.943,31.924 C200.233663,31.6453319 199.641502,31.2590025 199.1665,30.765 C198.691498,30.2709975 198.333668,29.6883367 198.093,29.017 C197.852332,28.3456633 197.732,27.611004 197.732,26.813 L197.732,18.548 L200.696,18.548 L200.696,26.699 C200.696,27.1170021 200.762499,27.5033316 200.8955,27.858 C201.028501,28.2126684 201.215332,28.519832 201.456,28.7795 C201.696668,29.039168 201.984832,29.2418326 202.3205,29.3875 C202.656168,29.5331674 203.020331,29.606 203.413,29.606 C203.805669,29.606 204.166665,29.5331674 204.496,29.3875 C204.825335,29.2418326 205.110332,29.039168 205.351,28.7795 C205.591668,28.519832 205.778499,28.2126684 205.9115,27.858 C206.044501,27.5033316 206.111,27.1170021 206.111,26.699 L206.111,18.548 L209.075,18.548 L209.075,26.813 Z M211.811,18.548 L217.017,18.548 C217.701003,18.548 218.350164,18.6144993 218.9645,18.7475 C219.578836,18.8805007 220.117164,19.1021651 220.5795,19.4125 C221.041836,19.7228349 221.409165,20.1408307 221.6815,20.6665 C221.953835,21.1921693 222.09,21.8476627 222.09,22.633 C222.09,23.5830048 221.843002,24.3904967 221.349,25.0555 C220.854998,25.7205033 220.133005,26.1416658 219.183,26.319 L222.603,32 L219.05,32 L216.238,26.623 L214.775,26.623 L214.775,32 L211.811,32 L211.811,18.548 Z M214.775,24.115 L216.523,24.115 C216.789001,24.115 217.070832,24.1055001 217.3685,24.0865 C217.666168,24.0674999 217.935332,24.0105005 218.176,23.9155 C218.416668,23.8204995 218.616166,23.6716677 218.7745,23.469 C218.932834,23.2663323 219.012,22.9813352 219.012,22.614 C219.012,22.2719983 218.942334,21.9996677 218.803,21.797 C218.663666,21.5943323 218.486334,21.4391672 218.271,21.3315 C218.055666,21.2238328 217.808668,21.1510002 217.53,21.113 C217.251332,21.0749998 216.979001,21.056 216.713,21.056 L214.775,21.056 L214.775,24.115 Z M232.92,22.044 C232.628665,21.6893316 232.270835,21.417001 231.8465,21.227 C231.422165,21.0369991 230.931336,20.942 230.374,20.942 C229.816664,20.942 229.300502,21.0496656 228.8255,21.265 C228.350498,21.4803344 227.938835,21.7811647 227.5905,22.1675 C227.242165,22.5538353 226.969834,23.0129973 226.7735,23.545 C226.577166,24.0770027 226.479,24.6533302 226.479,25.274 C226.479,25.9073365 226.577166,26.4868307 226.7735,27.0125 C226.969834,27.5381693 227.238998,27.9941647 227.581,28.3805 C227.923002,28.7668353 228.325164,29.0676656 228.7875,29.283 C229.249836,29.4983344 229.746997,29.606 230.279,29.606 C230.887003,29.606 231.425331,29.4793346 231.894,29.226 C232.362669,28.9726654 232.748998,28.6180023 233.053,28.162 L235.523,30.005 C234.952997,30.803004 234.231004,31.3919981 233.357,31.772 C232.482996,32.1520019 231.583671,32.342 230.659,32.342 C229.607661,32.342 228.638671,32.177335 227.752,31.848 C226.865329,31.518665 226.099003,31.0468364 225.453,30.4325 C224.806997,29.8181636 224.303502,29.0740044 223.9425,28.2 C223.581498,27.3259956 223.401,26.3506721 223.401,25.274 C223.401,24.197328 223.581498,23.2220044 223.9425,22.348 C224.303502,21.4739956 224.806997,20.7298364 225.453,20.1155 C226.099003,19.5011636 226.865329,19.029335 227.752,18.7 C228.638671,18.370665 229.607661,18.206 230.659,18.206 C231.039002,18.206 231.434831,18.240833 231.8465,18.3105 C232.258169,18.380167 232.663498,18.4909992 233.0625,18.643 C233.461502,18.7950008 233.844665,18.9976654 234.212,19.251 C234.579335,19.5043346 234.908665,19.8146648 235.2,20.182 L232.92,22.044 Z M237.252,18.548 L246.391,18.548 L246.391,21.284 L240.216,21.284 L240.216,23.792 L246.049,23.792 L246.049,26.528 L240.216,26.528 L240.216,29.264 L246.733,29.264 L246.733,32 L237.252,32 L237.252,18.548 Z M255.758,21.835 C255.517332,21.5309985 255.191169,21.3061674 254.7795,21.1605 C254.367831,21.0148326 253.978335,20.942 253.611,20.942 C253.395666,20.942 253.174001,20.9673331 252.946,21.018 C252.717999,21.0686669 252.502668,21.1478328 252.3,21.2555 C252.097332,21.3631672 251.932667,21.5056658 251.806,21.683 C251.679333,21.8603342 251.616,22.0756654 251.616,22.329 C251.616,22.7343354 251.767998,23.0446656 252.072,23.26 C252.376002,23.4753344 252.759164,23.6589992 253.2215,23.811 C253.683836,23.9630008 254.180997,24.1149992 254.713,24.267 C255.245003,24.4190008 255.742164,24.6343319 256.2045,24.913 C256.666836,25.1916681 257.049998,25.565331 257.354,26.034 C257.658002,26.502669 257.81,27.1296627 257.81,27.915 C257.81,28.6623371 257.670668,29.3146639 257.392,29.872 C257.113332,30.4293361 256.736502,30.8916648 256.2615,31.259 C255.786498,31.6263352 255.235503,31.8986658 254.6085,32.076 C253.981497,32.2533342 253.31967,32.342 252.623,32.342 C251.748996,32.342 250.938337,32.2090013 250.191,31.943 C249.443663,31.6769987 248.747003,31.2463363 248.101,30.651 L250.21,28.333 C250.514002,28.7383354 250.897164,29.0518322 251.3595,29.2735 C251.821836,29.4951678 252.299998,29.606 252.794,29.606 C253.034668,29.606 253.278499,29.5775003 253.5255,29.5205 C253.772501,29.4634997 253.994166,29.3780006 254.1905,29.264 C254.386834,29.1499994 254.545166,29.0043342 254.6655,28.827 C254.785834,28.6496658 254.846,28.4406679 254.846,28.2 C254.846,27.7946646 254.690835,27.4748345 254.3805,27.2405 C254.070165,27.0061655 253.680669,26.8066675 253.212,26.642 C252.743331,26.4773325 252.236669,26.3126675 251.692,26.148 C251.147331,25.9833325 250.640669,25.7616681 250.172,25.483 C249.703331,25.2043319 249.313835,24.8370023 249.0035,24.381 C248.693165,23.9249977 248.538,23.3233371 248.538,22.576 C248.538,21.8539964 248.680499,21.2206694 248.9655,20.676 C249.250501,20.1313306 249.630498,19.6753352 250.1055,19.308 C250.580502,18.9406648 251.12833,18.6651676 251.749,18.4815 C252.36967,18.2978324 253.00933,18.206 253.668,18.206 C254.428004,18.206 255.162663,18.3136656 255.872,18.529 C256.581337,18.7443344 257.220997,19.1053308 257.791,19.612 L255.758,21.835 Z M264.232,18.548 L267.462,18.548 L269.609,27.174 L269.647,27.174 L272.459,18.548 L275.214,18.548 L278.007,27.402 L278.045,27.402 L280.306,18.548 L283.308,18.548 L279.375,32 L276.734,32 L273.77,22.69 L273.732,22.69 L270.768,32 L268.222,32 L264.232,18.548 Z M288.59,18.548 L291.041,18.548 L296.893,32 L293.549,32 L292.39,29.15 L287.165,29.15 L286.044,32 L282.776,32 L288.59,18.548 Z M289.73,22.462 L288.096,26.642 L291.383,26.642 L289.73,22.462 Z M299.097,21.17 L295.259,21.17 L295.259,18.548 L305.899,18.548 L305.899,21.17 L302.061,21.17 L302.061,32 L299.097,32 L299.097,21.17 Z M316.197,22.044 C315.905665,21.6893316 315.547835,21.417001 315.1235,21.227 C314.699165,21.0369991 314.208336,20.942 313.651,20.942 C313.093664,20.942 312.577502,21.0496656 312.1025,21.265 C311.627498,21.4803344 311.215835,21.7811647 310.8675,22.1675 C310.519165,22.5538353 310.246834,23.0129973 310.0505,23.545 C309.854166,24.0770027 309.756,24.6533302 309.756,25.274 C309.756,25.9073365 309.854166,26.4868307 310.0505,27.0125 C310.246834,27.5381693 310.515998,27.9941647 310.858,28.3805 C311.200002,28.7668353 311.602164,29.0676656 312.0645,29.283 C312.526836,29.4983344 313.023997,29.606 313.556,29.606 C314.164003,29.606 314.702331,29.4793346 315.171,29.226 C315.639669,28.9726654 316.025998,28.6180023 316.33,28.162 L318.8,30.005 C318.229997,30.803004 317.508004,31.3919981 316.634,31.772 C315.759996,32.1520019 314.860671,32.342 313.936,32.342 C312.884661,32.342 311.915671,32.177335 311.029,31.848 C310.142329,31.518665 309.376003,31.0468364 308.73,30.4325 C308.083997,29.8181636 307.580502,29.0740044 307.2195,28.2 C306.858498,27.3259956 306.678,26.3506721 306.678,25.274 C306.678,24.197328 306.858498,23.2220044 307.2195,22.348 C307.580502,21.4739956 308.083997,20.7298364 308.73,20.1155 C309.376003,19.5011636 310.142329,19.029335 311.029,18.7 C311.915671,18.370665 312.884661,18.206 313.936,18.206 C314.316002,18.206 314.711831,18.240833 315.1235,18.3105 C315.535169,18.380167 315.940498,18.4909992 316.3395,18.643 C316.738502,18.7950008 317.121665,18.9976654 317.489,19.251 C317.856335,19.5043346 318.185665,19.8146648 318.477,20.182 L316.197,22.044 Z M320.415,18.548 L323.379,18.548 L323.379,23.564 L329.136,23.564 L329.136,18.548 L332.1,18.548 L332.1,32 L329.136,32 L329.136,26.186 L323.379,26.186 L323.379,32 L320.415,32 L320.415,18.548 Z" opacity="0.8" fill="#000000"></path>
            </g>
        </g>
    </g>
</svg>
