<?xml version="1.0" encoding="UTF-8" standalone="no"?>
<svg width="28px" height="28px" viewBox="0 0 28 28" version="1.1" xmlns="http://www.w3.org/2000/svg" xmlns:xlink="http://www.w3.org/1999/xlink" xmlns:sketch="http://www.bohemiancoding.com/sketch/ns">
    <!-- Generator: Sketch 3.3.2 (12043) - http://www.bohemiancoding.com/sketch -->
    <title>play</title>
    <desc>Created with Sketch.</desc>
    <defs></defs>
    <g id="landings" stroke="none" stroke-width="1" fill="none" fill-rule="evenodd" sketch:type="MSPage">
        <g id="landing-v04g-copy-5" sketch:type="MSArtboardGroup" transform="translate(-757.000000, -779.000000)" fill="#FFE200">
            <g id="Group-Copy" sketch:type="MSLayerGroup" transform="translate(449.500000, 762.000000)">
                <g id="WATCH-VIDEO-+-Rectangle-695-+-Oval-180" transform="translate(307.000000, 17.000000)" sketch:type="MSShapeGroup">
                    <path d="M14.5,28 C22.2319865,28 28.5,21.7319865 28.5,14 C28.5,6.2680135 22.2319865,0 14.5,0 C6.7680135,0 0.5,6.2680135 0.5,14 C0.5,21.7319865 6.7680135,28 14.5,28 Z M11.4890638,9.35392142 C11.4891237,8.80248959 11.8635798,8.61058917 12.322255,8.9231331 L18.8728275,13.3867307 C19.3329264,13.7002447 19.3527903,14.2380789 18.9327747,14.5755007 L12.260982,19.9353219 C11.8339911,20.2783474 11.4878953,20.107716 11.487955,19.5579688 L11.4890638,9.35392142 Z" id="play"></path>
                </g>
            </g>
        </g>
    </g>
</svg>